<mxfile host="65bd71144e">
    <diagram id="PCtNEmTAEBu2UixNXL5e" name="Page-1">
        <mxGraphModel dx="43027" dy="1140" grid="0" gridSize="10" guides="0" tooltips="1" connect="1" arrows="1" fold="1" page="0" pageScale="1" pageWidth="850" pageHeight="1100" math="0" shadow="0">
            <root>
                <mxCell id="0"/>
                <mxCell id="1" parent="0"/>
                <mxCell id="107" value="" style="rounded=1;whiteSpace=wrap;html=1;fontSize=72;strokeWidth=10;" vertex="1" parent="1">
                    <mxGeometry x="-18163" y="9987" width="21186" height="17634" as="geometry"/>
                </mxCell>
                <mxCell id="100" value="&#10;&lt;span style=&quot;color: rgb(0, 0, 0); font-family: Helvetica; font-size: 200px; font-style: normal; font-variant-ligatures: normal; font-variant-caps: normal; font-weight: 400; letter-spacing: normal; orphans: 2; text-align: center; text-indent: 0px; text-transform: none; widows: 2; word-spacing: 0px; -webkit-text-stroke-width: 0px; background-color: rgb(255, 255, 255); text-decoration-thickness: initial; text-decoration-style: initial; text-decoration-color: initial; float: none; display: inline !important;&quot;&gt;Data Flow Gen 2&lt;/span&gt;&#10;&#10;" style="rounded=1;whiteSpace=wrap;html=1;fontSize=72;strokeWidth=10;" vertex="1" parent="1">
                    <mxGeometry x="-17120" y="12657" width="17893" height="11673" as="geometry"/>
                </mxCell>
                <mxCell id="3" value="&lt;div style=&quot;font-size: 100px;&quot;&gt;&lt;br&gt;&lt;/div&gt;" style="rounded=1;whiteSpace=wrap;html=1;strokeColor=default;align=center;verticalAlign=middle;fontFamily=Helvetica;fontSize=72;fontColor=default;labelBackgroundColor=none;fillColor=default;strokeWidth=10;" parent="1" vertex="1">
                    <mxGeometry x="-16420" y="15357" width="1467" height="8198" as="geometry"/>
                </mxCell>
                <mxCell id="48" value="" style="rounded=1;whiteSpace=wrap;html=1;fontSize=72;strokeWidth=10;arcSize=14;" vertex="1" parent="1">
                    <mxGeometry x="-12230" y="16087" width="7213" height="5073" as="geometry"/>
                </mxCell>
                <mxCell id="144" style="edgeStyle=none;html=1;entryX=0;entryY=0.5;entryDx=0;entryDy=0;fontSize=11;rounded=0;strokeWidth=12;shape=arrow;" edge="1" parent="1" source="46" target="45">
                    <mxGeometry relative="1" as="geometry"/>
                </mxCell>
                <mxCell id="46" value="" style="rounded=1;whiteSpace=wrap;html=1;fontSize=72;strokeWidth=10;" vertex="1" parent="1">
                    <mxGeometry x="-4545" y="16280" width="1294" height="4189" as="geometry"/>
                </mxCell>
                <mxCell id="2" style="edgeStyle=orthogonalEdgeStyle;rounded=0;orthogonalLoop=1;jettySize=auto;html=1;dashed=1;strokeWidth=11;flowAnimation=1;entryX=0;entryY=0.75;entryDx=0;entryDy=0;exitX=1;exitY=0.5;exitDx=0;exitDy=0;shape=arrow;" parent="1" source="108" target="9" edge="1">
                    <mxGeometry relative="1" as="geometry">
                        <mxPoint x="-15386.400000000001" y="19765.999999999996" as="sourcePoint"/>
                    </mxGeometry>
                </mxCell>
                <mxCell id="103" style="edgeStyle=none;html=1;fontSize=11;rounded=0;strokeWidth=12;shape=arrow;" edge="1" parent="1" source="4" target="9">
                    <mxGeometry relative="1" as="geometry"/>
                </mxCell>
                <mxCell id="4" value="Data Factory" style="shape=image;verticalLabelPosition=bottom;labelBackgroundColor=default;verticalAlign=top;aspect=fixed;imageAspect=0;image=data:image/png,iVBORw0KGgoAAAANSUhEUgAAAEYAAABGCAIAAAD+THXTAAAXDUlEQVRoBd2aeVBTWb7H55/3NOSee+2pmXmvpmZ06s3rejUz3S2KAiEEspAEAqjshCw3LEnYVxHc0dZuF2Tfw76jrSIq+yKruLMGRFlcutveprune7rttiWvzrlJwKXRDkzVq0d9y0olN3A+fr+/7zk38Cvd/7uvX5lG9PjJ3+98mqL9SDn6IHD4fuCte0E355Q35pTX55RX55RXZlWDs6rLs6qBGVXfjLp3Rt09rb40re66q+6YDu6cCbn+0fGvv79n2o9+5btMRJr9ovjDH/zHPvIb+dBv+KFk6KHk5kPJjYeSaw+kV+5LB+9LL9+XDdyT9d2T987Ju+dkl2blnbPyjhmybYZsmVH0fa66NLP7ydPvX7k+Ey4wEWny0XtTX0ivz/penRFfnREPzogHpv36p/1670J135VcuiPpvCNpvyNpm5K0Tkmab0ubJmUXJ2UXJmUNk7Jzk/LG2YBH34yasOJXvsVEpOnPCqa+VFydEV+ZEV+eEfdP+/VN+/UYYLruSDruSNunpG1Tkpbb0ubb0sYFGNlZrey0Vn7xQdCtR5WvXJ8JF5iI9ODLi2OfkYOz0Jw+ZE7PXUn3XclimMXmnJ+UNUzI6idkZ7TyD7Tyk1r5udnAxjs7f5r/0YRFL/0WE5G++G5scE4yOCdZMOcuTFoHdEbWOiVtmZI23ZY1TsovTMrPT8rrJ+RnJ+SnDTy14/K6CfLkVMAn/5xcen0mvGoi0uOfvuqfVQ3ekxrNgZMzJW1FPFTS0OTIz01CmDNayHNKK6/TymvG5dXj8sox+el7yv6HRSYseum3mIg0r5sf+uj9648UXc+YI2u+LWu6LadgGibl5ybkZ7WQhwpbrR6GrBgjy0YVFZMBVdrQrx9/svQSf+mrJiLpdLrpv5+5/llAJ6wBWeuUrHkKwhiT1oDCtmDOODSnaoysHCPLx8jSUbJ4RFE4QlbNqS7dX2GjTEf64rvbHdOKzhk54pEjc+Dk6M2ZgLX2gZY8qZUbzSmH5pAlo2TRCKkZURSMKDTj/kWTygf/GPulVixxvelIT+ef9M7u6nno3zy1UAMNk2T9JAzbaQhD1o2T0JxxOZW0EmgO5CkYIfOHydxhMnuI1EwFlU8kfvfkH0us8he9ZDqSTqe7/fnZvkfKi7dhpyEYkqq1U1qyTkvWjpPV48akKUpGFEUjZCE0B8LkDJFZQ2TGLTLtFpl3V3luOvWnpytT6MtC+vrxh013VI3T/ucmyfoJ8vQEiZIGeWq0ZNU4qoExsmRUUYx4CkYURnMyb5HptxSpN8mUG/ITN2XZU/5Ns/lP53/6RYa89OJlIel0usEHmW0fKs9qSdTR5EmtolarqB5XVI4p9GGDMIpCCKPIHVbkDBvMuUlCnpvyEzekydckyTckGZPkuemMx0/++dKFvv6Ty0X6+Nuxc3cDzkwqTmrJWq2iRquoGocwqNagOShpijwIo8geJhfMgTCy5OuS49clx675Hb0qPnpNnDohq5jY+/G3M68P8OKVy0Wa1813zR678EBZi2Coji4bpSZHoRlR5I1Q5iiyhhQZt8hUKmyUOdclx6/5IR7f96/4vAflnTwqTh0K6P+w3mS7louk0+k++mb85J3Amkn/8jFF2aiidFSftIIRRe4IMgfCKNIWYGTJ16XHEc/Rq+IjV30pmMODXu9e9jw44Hn4uteRYZ+84eirHzd9++NXL/qw9DMrgKTT6TrnMk7fV5WOLJgDeYYV2UOKzCF/VAOoCX7OnEHvQ5cpHo8DAx5J/W5J/W6HbngeuuFx4nrQ2anM0c96v3r86Y8/vdb91cogffHd/ZrbYeWTAfrJGVHkDEGejFv+i805cUN6/Lrf8WuSo9eM5vgcHvQ6BM2BMAf63ZP63fb3bdvbu3VP75Y9vVv2X9l68KbbngHXfX2eqddCS0eTTk2mNtzJvTitaZwpapsrv/6o9avvP13s28og6XS6Gx/XV82pC0b9oTnD/plDivQhRerN58xBTXBN/D4K2+Er3nqey54HBtyTBtz397vt69u2tw/y7O513dXjsrPbOfGSKLHHeWev884B591XXA7c3HZoyOvIiPjYmDxFG5A+pioY3X7rUYeRasWQnjz94ez04dIZNUzaEGWOIsVY04YmOHLV9/2r+iY4pB8eD8jT76bn6d26p2fL7h7XXd0uid3OCZdECZdEO7qc4jsd4zqEcR2ChEtOu7q37O1xT+rzfrff78ggmT4cnD8ZOfyJnmrFkHQ63eP5r6vv7szWBlFhS71JopqGYYO1hsJGNRtlzrvQHI+kfvf9/dv2922D/qC87e5x3dnjknhJtAPxxHc6bu8UxnUIYzv4Me38+E7HxEuuu7vd9vd6HewXvzcgPzYYkD0aphnb/uXjRzqdTo80/fntc5PVp8dLzmhLKZ2dKDWqfqJUL21pPaXxkvoxpNHiekojxRdGa9IHorO1QelDCrSHom0H1TQyR99shwY9UbPpm+A5GCpsi8yhYIQx7fzodofodoe4DmFCl8uuS257ezwP9PkeHpAdHfRPuaYquht745MWPVL/vQ5W8Z82lq7ZWLLGonTNptI1m8rWWFZAWVWssa5cY1MFxahcY1OxhllG2JZCsYoJVhFhq8FtC6BYebhtDrBMpoWcY2aNBMIzAbWHLjQBmpxBz4PIHCps+4zmUGHr0YcNJq3LaI4gBsFEtfGi2nixHfz4TlFi17Y93R77e73f7ZccGVSkXFNqbkc1z8D7FOiS/xnnDcVr3ski1mcT5jnEhlwoi3yoTQXE5gLCsoCw1BBWhYSVhrDKJ6zzcOscKEY2zsjCrTOAdTpgpEFZJdMZySC2hZs2pNDvoVQTDHrrJ4dqAhg21ASGpL1gDuSJ7YDmQB4EE9HKiWjlxLTzt3c6JXS57u5239/rfbDf7/3LZPLVoPzJyDOTOXokUbn5+lxiAQlR6ZHyF5CsCwkoDWGdj0OqXNwaIS1QpQJGKrA8Zmabuia+XZByU041weLJ0TeB0ZzeLcZa09fAc+YgmMhWbkQrJ6yVHd7CRkYJd3QuZO+9AfnxK4H5E5GnJ7L1SK4VFi9BynveJQqJUUgwNAQjH2fk4YxcnJGD21BgmcAmHdikAUYK2HyUZpf+Rny74PgN6eFB72cmp/+ZGnipOXEGc6LaeJGtvIhWTjiCCW22D222j2zlxrQLtnc4J3Zt3dPtkYTG6diVgNyJiNNa05CKCIrKRoMz83FmLhRFZZMJmOkYMxWzSQGbj9Hs0tbEtHCPXBMfvOyZZNxDF9XaLlRrsAm6RItqTQCbwGAOhGllhzWzQ5vtg5tZwU2s8BZOdCs/rl2U0LVl9yWYvUP90qOD/jna8FPjWUu69MIs6V0qImyKCUYRYVNIMAsISJWHwHJwmyycmYlBqjQIZnWcxkrFQ84zD1/xOTDgbujorXDPofZQtO1Qe46hplETGCYnvJUT1gJhQprtgptY6kZbdZNtWAs7qtUhtt1pR6frri63fb1eVENka8M+0Gb+DNLienhhliBMsUGFhE0B8gpR2ebgtlmAmYFBITBGMo2ZbEaeXJ8EN1N3uIeiM0EiOhPs6NLvoQYeVNMwbHByoDkt7JBm+5AmyBPcyFJdZKoamSHNdhEt3Jg2x/gOl8SurXu7vQ6ghsgaCz05nvEaSIsab7FLNsUEs4RgFhM2hTizAAlRsXKAbRYUMxOzTYN22SSbWR9b5V7yXwldjvv73RbCBs8Ei2uaH90OO9rYBPqwNbHUTbbqRlvVRWbQRRvlRRtD9gRx7c4JXVv2dHsc6PN977I8cyzk1Gu5tDRSKWFbQtgW4axCnKXBbfNxVi5g5QBWNqRiZQLbdIwFQ0i3PrqKn/0b9Xnr3b1bdva4LA7bczVNmWMMGzSnkalEMIEXGIEXrNWNtqFNVPZECZ1wnJL6fA5flmWMBdeNLdsl2xKCVUrYlRB2xbhdIbDTALt8YJcH7AxgrCxgl45BpWHM46ttk2meZf8d3cpL7HGO73KM7VjYQxfCRjVBE2wCdaMtBRN0wSbwAsP/vJX/eSvlRWZIk31ECy+mzSm+A1Y5bIgBafqoum4s/ZcFzwrtS8ZZYpZAiyASpRL858DsMhBVOmaXYmZzbBUv4w1Z3dvR7Q7buxxj2vlRbfqafq4J9OZAGJuA89b+563Ihs2KBsugC4zgRlZ4Mye6Vbi93Xln17Z9PbAh0kZVdWNpSyFtXLLxqFnSI5URdmUGMKNdBdAxe+SYfTbGycLsMzD7dMw+DWOdoNkeWyXM/q2s7p3wFnZ0Bz+yjUvxBKMmoCZHedEmyACjOG9JNmyWN2yWn9sUcMFadZEV2sSJauXHtYnQ7uR5sN8vdURZuzTSz50eXuJSGWFfjlRG2JcS7GLAKQLsIsDWAPsCwM4H7FzAyYFUnCyMnYmx0+nsVDrr+GrW8dWCrN/4VP2P6jwjDB0OQprtqLBRSUPmWCoaLCkYab2FtN7CmL3IFofYNqeETqohxCkjQTWjqUu59OIZ78XGM7pEIbErCHY5wS4j2CU4pxhwigG7EHA0gFMA2HmAk4txspEyMU4GxkFgdidorOOruWm4q+YPfnVvBTZYqRqZ6iZW4EWbADQ8yJxNsnObpPUWkrMbJWc3kg2bAy8w1I324c28mFbH+A542Evq8z0xHFi9gkh2yCV2BcFBYpcRnBKcWwK4xYBbiKQB3HyMm4dxczHoGIoiB7LR2Wl0doqZXfJq+xM0fgbhqvm9Z8Wbkg/elp+zIBs2k+et5OctZQ2bpfWbpOfMZQ3v+F/cqGyyDG1hRrax4zr4CZec0b2TT/K/CqmS4FbiUBU4rxx3KAW8YihuEeBqAE8DeAUYD4FxczBuNsbNwjiZGDeDzkunc1Pp3BQzdvJqzgkaL5UuyCREeb/bUvSHbaV/cq/4s2f1m66lFs5Ftu6Vtt7Vdn61PFmdQHFKFHbBdU/v1kODXseHAqpGU1YgeLDuyogFlxASrwqHqsQdKgC/DIpXgtiKAK8Q8DSYQz7Gy4dsvByMlw3ZHLLoDhl0h3Q6Px3+y0sz46WacVNpnBOruSmreak0QcaqN6PYwCv0DbHyDXHwG74hv/YN+7VP2O8kYeY7goJPi9O18uqxf8EscSqgS7wq3KEa51fjDlW4QyXgVwB+OXAoBQ4lgF8M+EWAX4jxNRi/AMohD3PIxfg5GD8bKYsuyKTzM6CoBw4Q0kyY+e9/juCs3hZB9wimu4fR3cIxtwjMLZK+LfrfnOJ+7RMR1hB4ajJZ75JL+cZnbi6oMx51c/HzZ7yFfellLjlUQSRKgiogqAQCBMYvA4JSICgBgiIgKMIEhZhAgwkKMEE+lDAXE+RighwoYQ4myKLrlWnmmLPqzSiOmXs48FIDrxDgEYZ7hOMeEbhHJO4evco59s9hMQWDBqTnbwEXH1uXPBAZG+/F4BmRBDW4sBYX1gChAUxQDoTlQFgKhCVAWAwcizBhISbUYI4azLEAc8xHysMc8yAhVA4mzKY75a96M5pt5kYhBQOPMKBHisDdo3H3aOC5I6bMcCAKbvDYWLrmnRxifQ5hnktsyIOyKIDapCE2a+BdumUhYV0ExSgmbEqgmOgTCDtqU6ogYN1VEtwq2A364NXg/BpcUIs71UE51gKoauBYhTlVYk4VmKgcE5VholJMVEoXldBFxXRREV1UaJCG7qShOxXQHfMxkWa1Uz7t98qtZu5hyKVg4BmKjIqARiEkwnuHzxHD/dLwx9dcqjeYFxAbCoiNGsKiEGpTMbG5mLAsgbIqIaxKCZsyKGY5YVsBxaok7CoJ+yqCXU1waqC4tQSvGneoBvwaIKgBwlogrMUc6zDRyRdUR3eupTvX0J2r6c5VdOdKM+cKpHIz5zIzl1KaXiU052Kac/FqYT7+lwQG3UuFeaoRkjF7CMkjCnePJrx3yJOL9bOk0+k+//bTvnttPXPNvXMtlPrutTyj+y3991sGFutBywDS5QctAw9bLj9sufVJ17stB/64e8MfE82RNv4xwWLtjk1rEzatTdi8dofV2h3WUPGMtfHMtduZa+Ns18bZrou1XxfDXhfNXhfNWRfFXRvFXRfJWxfpsC6CDxUuXBch/I9AT7qnCvMOAl4qAxI0avE4ET6JJ84YPvQyfvS6zAd///rbDXulZmqOWSCb5s+h+fNoCj6NFNBIIY10pMmdaTJXmtSVJt1Kk7jR/NxXiz1Wiz1pYh+aWEzz8aP5Smg+UpqPjOZN0rwVNK8AKE8lzUNF91IBn0Aob+VLkQjv+LXyndMfw783WLFPW396+tQjKwaPYgG1LVCzgMoOKO1BEAcE8UCgA1SAAPg7IYmAwgWQWwC5FZNvw+TuQOYJZF5A6g2kPkDiCyRi4CcBYikQy4AvCXwVwNf/JUheobAhPCMJnzjcK668Y4CyZMWQ8rtO4pE2IIQB1EyExAJKO6DkgCCungoiOeqpnkFyw+QeBiTvBSQ/CkkOkcQBQKzCpSG4NAyXRuGSSFwShUuicb9Y3DtmfcTB2u5BY8RWBmn60/vr4vl4OAMEWyMkW6BajMRFLvFBgNBA5QwUroDcglxyQ0Z5IJeeRfKT47IAXKYCYv83g2Nc3z0Wmleyq6xub9XpPZUf7K44daC6/mTv1S++eeYPDFYGSVmyF49hgBCrBSQ1hcTWGwWzh5ACKKOM2aOo3IHMA0gXZ0+CkwogJRmJu/fXnOzVTnz29dfzunmjFUs8WAGkgbu31kRYgjArEGIJkYJt0DjZ6seJyh41ToECEOAIApyAP0JaMAohyTwRlQ+QS3BS5pCU9MHlgW++/26J1b/0peUizc/Pe2SF41FWIGSzAYkBgpmQSmUHVPZAyQZKLghCDREoAIEIKUAE/J2pksDkWzG5G3QJlQTuL30zPKSwvfWHJ09euuJXPrlcpJ7b1/AICxBmYUCyAsEMvVEqFkRScRaQgvgIiTJqMRLqPbknHujnkfz+7Kfw10Qmfy0XSa7ZgcdsAiEbQcgm5BIap2AbEIyqXG0HVJRLPBDEB0GUSwYkf2dAuuqrnPQAgT6RxXnf//iDyTDUG5eFNPVo9j9jGCBiIwg1IFENAY1CVf4MkgNEChLqx0mfPdR75DYQ5L29QrNMmBVAOtKUj8duBKEboEIsoEv6hjCMk5oF1Ch7QTygdEBGCV8cJxDkpchJfjr/WoX2SmzTXfrxyY/Wh91BNOLRI1ENsWicIJKdfpyUDkDJB4EICZaEviHwIHfmvuiv/vntK9f6mheYjjRw9yYRYQ7C14NQc+TSxpc0hB6JDVRcoKTGSWigQkgBrr9VeV2e0r7mcl/nMtORDl/IwuPMQdg7i5B+viFUXESFGoIqiUARCHDG1du2V+S+zkJf/xoTkZ7OPxWlKfCY9RApbD0ap59rCGqcKCSqIVDvBToBpeufIsQPPv+/8ee6H375ye/jLEHk24uQXtUQVPZgSQhQ9pzwkK2xFfAXxiv7ZaJLjSNdIOKvIPwthPTOotJDDQGr3LDhGhsCZg/1npIPqzxI9IZ6y5W7KzlF1H+NiUjHmvPw2LdA2N8MSMaGQOP0EiTUENAo1HtBQjzYhXkg/MefTDz1LGGsiUhBpfF4HIW0OHvPjZONYcNdPE7UBiXAQ1z2nCpcYmUmv2Qikihdgcf+DYT9FYRR2aMaghqnF86vxg13IXsCXC3qmRgyed1LvNFEpB0fvE8kvg2i3wJRb4MocxC1AURaQEVsBhFWIMIahDNAOBOEs0CYHQizB2EcEMoDoQ4glA9ChHiki/BI7Pc/LPc491IwE5E+++aL8Kp9G94VrU8SmSe5IG0xT9pqvn+b+X438/0e5vs8zfd6me/1Nt/jiyQ23yMx3yNbv1u2YQ+pLj4299nHL13Q8p80EWn5P/hf9x3+F+q7L2wkuaBeAAAAAElFTkSuQmCC;strokeColor=default;align=center;fontFamily=Helvetica;fontSize=200;fontColor=default;fillColor=default;" parent="1" vertex="1">
                    <mxGeometry x="-15856" y="17702" width="569.67" height="555.78" as="geometry"/>
                </mxCell>
                <mxCell id="7" value="&lt;font style=&quot;font-size: 200px;&quot;&gt;Ingestion&lt;/font&gt;" style="rounded=1;whiteSpace=wrap;html=1;strokeColor=default;align=center;verticalAlign=middle;fontFamily=Helvetica;fontSize=150;fontColor=default;labelBackgroundColor=default;fillColor=default;" parent="1" vertex="1">
                    <mxGeometry x="-16194.689999999999" y="15173" width="1079.66" height="287" as="geometry"/>
                </mxCell>
                <mxCell id="49" style="edgeStyle=none;html=1;fontSize=11;rounded=0;strokeWidth=12;shape=arrow;" edge="1" parent="1" source="9">
                    <mxGeometry relative="1" as="geometry">
                        <mxPoint x="-9650" y="18378" as="targetPoint"/>
                    </mxGeometry>
                </mxCell>
                <mxCell id="9" value="Raw" style="shape=image;verticalLabelPosition=bottom;labelBackgroundColor=none;verticalAlign=top;aspect=fixed;imageAspect=0;image=data:image/png,iVBORw0KGgoAAAANSUhEUgAAAKAAAAClCAYAAADbAvaeAAAEDmlDQ1BrQ0dDb2xvclNwYWNlR2VuZXJpY1JHQgAAOI2NVV1oHFUUPpu5syskzoPUpqaSDv41lLRsUtGE2uj+ZbNt3CyTbLRBkMns3Z1pJjPj/KRpKT4UQRDBqOCT4P9bwSchaqvtiy2itFCiBIMo+ND6R6HSFwnruTOzu5O4a73L3PnmnO9+595z7t4LkLgsW5beJQIsGq4t5dPis8fmxMQ6dMF90A190C0rjpUqlSYBG+PCv9rt7yDG3tf2t/f/Z+uuUEcBiN2F2Kw4yiLiZQD+FcWyXYAEQfvICddi+AnEO2ycIOISw7UAVxieD/Cyz5mRMohfRSwoqoz+xNuIB+cj9loEB3Pw2448NaitKSLLRck2q5pOI9O9g/t/tkXda8Tbg0+PszB9FN8DuPaXKnKW4YcQn1Xk3HSIry5ps8UQ/2W5aQnxIwBdu7yFcgrxPsRjVXu8HOh0qao30cArp9SZZxDfg3h1wTzKxu5E/LUxX5wKdX5SnAzmDx4A4OIqLbB69yMesE1pKojLjVdoNsfyiPi45hZmAn3uLWdpOtfQOaVmikEs7ovj8hFWpz7EV6mel0L9Xy23FMYlPYZenAx0yDB1/PX6dledmQjikjkXCxqMJS9WtfFCyH9XtSekEF+2dH+P4tzITduTygGfv58a5VCTH5PtXD7EFZiNyUDBhHnsFTBgE0SQIA9pfFtgo6cKGuhooeilaKH41eDs38Ip+f4At1Rq/sjr6NEwQqb/I/DQqsLvaFUjvAx+eWirddAJZnAj1DFJL0mSg/gcIpPkMBkhoyCSJ8lTZIxk0TpKDjXHliJzZPO50dR5ASNSnzeLvIvod0HG/mdkmOC0z8VKnzcQ2M/Yz2vKldduXjp9bleLu0ZWn7vWc+l0JGcaai10yNrUnXLP/8Jf59ewX+c3Wgz+B34Df+vbVrc16zTMVgp9um9bxEfzPU5kPqUtVWxhs6OiWTVW+gIfywB9uXi7CGcGW/zk98k/kmvJ95IfJn/j3uQ+4c5zn3Kfcd+AyF3gLnJfcl9xH3OfR2rUee80a+6vo7EK5mmXUdyfQlrYLTwoZIU9wsPCZEtP6BWGhAlhL3p2N6sTjRdduwbHsG9kq32sgBepc+xurLPW4T9URpYGJ3ym4+8zA05u44QjST8ZIoVtu3qE7fWmdn5LPdqvgcZz8Ww8BWJ8X3w0PhQ/wnCDGd+LvlHs8dRy6bLLDuKMaZ20tZrqisPJ5ONiCq8yKhYM5cCgKOu66Lsc0aYOtZdo5QCwezI4wm9J/v0X23mlZXOfBjj8Jzv3WrY5D+CsA9D7aMs2gGfjve8ArD6mePZSeCfEYt8CONWDw8FXTxrPqx/r9Vt4biXeANh8vV7/+/16ffMD1N8AuKD/A/8leAvFY9bLAAAAOGVYSWZNTQAqAAAACAABh2kABAAAAAEAAAAaAAAAAAACoAIABAAAAAEAAACgoAMABAAAAAEAAAClAAAAAEzEtMMAABB8SURBVHgB7Z1rzFxVFYYRhLbcJBRCIdiPcisiUpSWm/yQSzVA1CalBlIDISlSJUgiKAYwBlL4ZRQxhNIAYuIfWiEE0GJCQDQGSgETKCjUYCkkUG5WCnIVfZ/4DZkOZ85Ze5+zz2VmreTNmTl7r7Xe9e49Z85lf/Nts42bK+AKuAKugCvgCrgCroAr4Aq4Aq6AK+AKuAKugCvgCrgCroAr4Aq4Aq6AK+AKuAKugCvgCrgCroAr4Aq4Aq6AK+AKuAKugCvgCrgCroAr4ApEKPCJCJ9RdZmlwk4Tjhb2nizyRW3XCL8V/jG5zzeuQKUKHKRotwofCv8dAtroQ183V6AyBb6hSFuEYRNvcD998XFzBUorcLEiDE4w63t83VyBaAWulKd1sg3rRww3VyBIAS66rhGGTarQ/cTyC7mgIRjfztup9JuF0ElW1P8mxSS2myswVIHt1bJSKJpMse3EJoebK/AxBaZpD/fxYieX1Y8c5HJzBT5SYBe9+oNgnURl+5GLnG6uwDa7S4OHhZhJxVdq7Fc2OcntNsYKzFDtTwgxk48LFS4qyly0kBsObmOowIRqXi/ETL6fy6//tgqv2RcTCw5wcRsjBWar1ueFmAmzLEcn2mJibpQfnNzGQIE5qnGTEDNRvm/Qhz4xseEEN7cRVuAY1fZPIXSC/Ec+SwN0oS8+oXngBke3EVTgJNX0phA6Kd6Xz+IIPfDBNzQfHOHqNkIKfE21vCOETgZ8vl5CB3xj88LZbQQUOFM1xB6JTq6gfmLEHnnh7tZhBb4l7rHnYsdVWDexYs89qcGtgwpcJM6hX7n0f1k4IkG9xCR2DCdqceuQAleIa8xAc2/wkIR1Ejv2/iM1ubVcAZ5IxC4k/bt896uhPnKQK+YD4gtbaxig2BTbypFFnzEDu05+vT+xjM0f4kcucsZwpUZqdWuRAizyvFWIGdC18pveQC3kJHcMZ2r1ha0NDFpWyqnaGbuQ9AH57poVtKZ95IZDzCSkZmp3a1CBMgtJV4v3tAa591LDAS4xk/B++fnC1p6SNW9ZzLlGiBm4VfLboWa+eengAqeYWtDAF7bmqZugbYZiPiHEDNgv5bddAk5lQ8IJbjE1PS4/NHGrQYEJ5VgvxAzUtfLjVk1bDW5wjKkNTdDGLaECBys2izdjBihvIWlCylGhyyxsRSO3BArMUcxNQszk+0ECPqlDwjmmVjRCK7cKFThGsV4XQgeEn0tbWiGPukPBnRpC60YrNHOrQIETFWOLEDoILMFaXEH+pkNQA7WE1o9maOdWQoGvyvdtIVT8d+SzoETetrlSCzWF6oB2aOgWoUDTC0kjKCd18YWtSeXdOvi5ehuzkHSz/KpcSLo1q+bfURs1hh4J0RJN3QwKXKQ+oQLTn8WenzfE73oXavSFrYlG8QrFjZl8L8jvkESc2hiWWqk5Ris0dhtQgCcAPxNiBK1rIekA5cbf7icGsQtb0RrN3aQAiytvFGImX90LSds2YGUWtqI52o+1lVlI+oiUmz7W6v2/eDRAi5gP8K3yG9uFrVNV/N2Rwv1Rfk0uJFX6VhlaoEnMJGQMGIuxMhZR3i/ECNaWhaRtG7BpIlRmYevObSsoFR8WT64RYibfb+TXpoWkqTSKjYs2aBSjLWPC2Iy07aXqHhdiBLpFfm1cSCparTI0ukWI0ZixYYxG0maqqmeEGGF+IT+/bWCfFmiFZjFaM0aM1UhZmYWkV42UEvUWg3Yxk3Cj/EZmYevnVMxLkUJcIj+3cgqgYcwkZMwYu04bv3u8SQgVgEWY3+505e0ij5YxC1sZu87+djW3Wv4mhE4+Fl9+U3CrVgE0jVnYyhgylp2zFWIcOvlGbSFp2wYtdmErY9kpmyu2oYf8t+Qzv1NVdpMsGqN1yMGBsWRMO2N3iGlIgSyy/GJnqus+UbQOXdjKmHbCWKHxgWCdgOOykLRtgxe6sJUxZWxbb98RQ+vkG7eFpG0bvM+IUMjC1k7cmVhpnIBvqB8CuDWrAGPAWFgOGoxt6+1JMbQU86PWVzI+BBkLy5gxtq23f4mhpZiDWl/J+BBkLCxjxtg2YiELAfgTQMtS7+3VjxNbt+YV+KQocJO6yLgd08iKpJAJyCfJYiExLfG8TzkFWj1uliNaufLd2xXIUcAnYI443pReAZ+A6TX2DDkK+ATMEceb0ivgEzC9xp4hRwGfgDnieFN6BXwCptfYM+Qo4BMwRxxvSq+AT8D0GnuGHAV4VOM22gp8SeV9SuC58BeELwt7CJ0zy0Nt62OfzhU/QoT51vuK8Duhf0xbX2I/2bzXrS/ECX6kwEl69ZTQiQNH3qTrb/uoOn/RCQV2FMtfN8U0ZOWK9VMSErOpuj1vSxTwq+CWDMS40vAJOK4j35K6fQK2ZCDGlYZPwHEd+ZbU7ROwJQMxrjT8SUjcyM+U23nCPIGrfv6dwg3CBqENNiESPX7wWSvA7znedNX67/Xlve5qfVbep6hj1o8AsW+RNUjCfguH8Pu39p+aMG/y0HmTrr8tOZEGE8xR7neF/nr7X7+ntiMa5Hd4AT+489sxnbR+ofNed7I4I2l+SSqvdtpuN8ZK0W2Vgd9dKRLXEbNI+F57HVyayHGoklp+G5E/4J/VAMEJ5bT8ehk1HNYAv9IpexOsaFs6UUsD3CleRbX32q9voIbrAvjxb7w6Zz1xi7adK8xA+Ez1Kaq7v50jUZ1HGY7Oob8TvdhQd6u69Auc97pVpCsgc4BivCrk1ZzVdp986liYQY57I/i9Jp8Dhc5YlshZ+zpTkIHodPXhPwxl1WnZV8f/Q7m4BL/18u3M6miL4PQZFdtbhTwqWOvO6sfX4vEJBTlOsbn1k5Xbuu8x+e+TkGNloa0FVZawwUD87cRGwVpzXj++6lL8YuxsxY05Ncji+rxiHSm02rKIZ+1rdREF5PiNvEuFskeVQV1eUcyjCnKHNM9V55eFwTxl3lPz5QIatNKsxbWSvIEUj6nWCdY6Q/vxz3ouFMpcmOB7gfC2EJrf2v9JxT5NaJ1ZC2gd8RxC/Ev7swQe1lvrK9vvEeWaL4TayXKom+fZyolGrTCr8K0gO4QEq394VrtEuE14U7DWVXU//hrtMoFzL/4j+qCxjzb6cFSqOr81HhrxePFcAe34CebKLOTrAMIWC4lpiRfaZ6YclgrzhJ0FeCPajEkwCaswHuwvFJggx5YMyI1rLno2T8bhD8knhLJcH1SMqwQ+bFOEKgyumwT+7SvnjYw3k5Sj83KBOpKY9ROTJLkx6Onqx7IjK9fYfgjOOSO2p/CMEBsrlR+c4IbBFc6pcvXioj1jkMR6SYq2SZIbghYtlSribW1/UVwGb1nsr33st8ZI3Q8us4R+g3MdHPlmYCwqN6tolSc2BlylflaOsf0eUo6JIXwO1v5na+BQxB0OcMkyuFNDUYyy7SuzkpfdZyVVNk+sf1U3ZbPq5LznSqHonGwv9anzSnWQK7nhkGfUQC3UNOhf1XvGonKzkqs8sTFgqntja5T/aCMHuk0RfiJ8KFg1K9uPXOQkt9WoidrK5s7yZywqt6xEWfsqT2wMyDPNLD6x+zYo3mIh9qr+BPmuE2LzW/3IQa4YozZq3CBY81n6MRaVmyUxfZqy85XYyjGvH+dIZwhFX7eWOnmstUTg1kRezpg2YhK7ikdn1ErNVZ0fMhaVm1WkyhMbAzIQqwUrz/5+T8vvaoFFCCkMbguEe4T3hf7cIa/xJQaxqph4CvMxQwO0QJMQbr2+jEESbr0ERVvlb8y44bxM4IbuMJ6sTnlUWC6cI8wW6rTdlGyRsELgHGyLMIwrbfShLz741mlog0ZohWZoN4wrmqN90JMSzgGsRmKLhcS0xIvpgwjcithJ4I+EADdJX5jcatMaQy9uGPP0Y9dJVm9oy79QfUWw6j7pmnyzozLsK7DlSAfeErjxzRE6yEImi1WIkJhBZL3z6Cmw7eiV5BV1SQGfgF0arRHk6hNwBAe1SyVx/8ctXIGZcjlPmCdwzvuIcIOwQWiDTYhEjx981grwe443XTUuQizoan1W3qeoI1d9g1qwb5E1SMJ+CxU7ix93AViW1VkbFHzY+84WaCBetOTrPcU4whAnVZfDFfhdYdjY0Oa/jpVK/Rri3pEzuL1Bv70GHsNSrDLwu2uYc9v39wQu2ra9jlh+h8rRssLFfx0rVuECP+v6sSkFcbrafKeIF334eu3XN1DkdQH87m6AX+mUrxsLbPIcqHSRQwKcaay9NwH5sB42JFaK3RydQxc5LE5BJGXMvyh4T+C87bUpSTQQ+wDlfNVYe78u98mnjseS5Lg3gh8LCw4UOmO/EtN+gYe95pM4vzNV5ROdrmYesg+rtWj/JfnhK2m9uAS/9fLdoxIWNQQ5K6BQLvd/KOxSA69UKfZWYJYgFU2yvHY+jMenIqi4xwnc+snjUNT2mPz3ERqxkK8Ilgu9JEwNYIo4Twusa6vCblKQm6sIVBCDRZnccvl0QT9LM+fOTMK/WjoH9Jmtvn8WOEqXNZapLRD4wLXabhS7ok9UqvaHlTtosWOEkqxtu1Qoe1QZ1IB1fUdF8BnmMlcNLwuDecq8p+bLBTRore0vZu8IZQqN8eWr7LOJVTlV8dclrA3dLhRCvnXUfSvD9wLhbSFGR4vPk4p9mtBa+7GYWQqpss+KRGpwOsG57doaa2LhQsxF2skN8DxbOUNOudQ9vXGIfkCocoLlxfpQuTjfqcJY/cN9yiXCbcKbQl7ulG1PKfdlwpHCDsKgsY82+nBUSsklLzYa8XjxXAHtKj0Niv062F1E/iRwAzS1PaQExwYkmam+S4V5ws4C4iLajEkwCaswrvQXCkyQEH5ZuT/Qzo3C5slGLvgmhLJcH1SMqwQ+bFU9oYLrJuElgfNG5hCTlG+R5QJ11GJ7KAuTI+/TU0UbA2y109WRZUdV5M2LgeCcM2J7Cs8Ief2baIMT3DC4wjk1D7RnDGozviauEXgAn6q4E43VzFE/jkqpePTivqgcfDX2Gxdn7O/1aXoLl1n9BPUaznVwZAwYi1ptrrL9Xkgh/L7GSlYlyt9fE0f8iSF8+DPQZ2vg0M8n6zUc4JJlcK/jW2tlVvI69nFOuEx4WOD8IEug0H1TFcdiMc9rrVw477lSKDon20t96ryiHuRPbjjkGTVQCzUN+lf1nrEwWexFiCU4hfIkYTdhisVhSB8+sRbj3ph1slri9frwYfquwC8UWIxaOfH/npBS334uTJyfCpwv8xVosaPViYUjVd4g7+Xlnue03ptx2T6mQqv6BBNng7BYiJ1EJ8h3nVAlp6xY5CBXjFEbNW4QsmLH7mMsxs7OV8WxgvX7ccQ9Qyj6urUIzD3TJcJGoT9HFa+JSewqHp1RKzVTexXcGIuxMwZitRAj4NPyu1pgEUIKg9sC4R7hfSGGIz74EoNYVUw8hfmYoQFaoEkMT8YgFTeFbrdxw3mZsFkYJt5rantUWC6cI8wW6jTOiRcJKwTOK7cIw7jSRh/64oNvnYY2aIRWaIZ2w7iiOdozBmbjHGAUDRG4FbGTwD1KwE3SFya32rTGGANuGPP0Y9dJVm9oOxa/jjVZr29cAVfAFXAFXAFXwBVwBVwBV8AVcAVcAVfAFXAFXAFXwBVwBVwBV8AVGEEF/gdmWb8rEpz33AAAAABJRU5ErkJggg==;imageBackground=default;fontSize=200;backgroundOutline=0;imageBorder=none;fontColor=#000000;" parent="1" vertex="1">
                    <mxGeometry x="-11910" y="17674" width="1358.55" height="1401" as="geometry"/>
                </mxCell>
                <mxCell id="12" value="" style="edgeStyle=orthogonalEdgeStyle;rounded=0;orthogonalLoop=1;jettySize=auto;html=1;shape=arrow;" parent="1" source="13" edge="1">
                    <mxGeometry relative="1" as="geometry">
                        <mxPoint x="-8860.000000000007" y="19117.37" as="targetPoint"/>
                    </mxGeometry>
                </mxCell>
                <mxCell id="50" style="edgeStyle=none;html=1;fontSize=11;rounded=0;strokeWidth=12;shape=arrow;" edge="1" parent="1" source="13" target="14">
                    <mxGeometry relative="1" as="geometry"/>
                </mxCell>
                <mxCell id="13" value="Curated" style="shape=image;verticalLabelPosition=bottom;labelBackgroundColor=none;verticalAlign=top;aspect=fixed;imageAspect=0;image=data:image/png,iVBORw0KGgoAAAANSUhEUgAAAKAAAAClCAYAAADbAvaeAAAEDmlDQ1BrQ0dDb2xvclNwYWNlR2VuZXJpY1JHQgAAOI2NVV1oHFUUPpu5syskzoPUpqaSDv41lLRsUtGE2uj+ZbNt3CyTbLRBkMns3Z1pJjPj/KRpKT4UQRDBqOCT4P9bwSchaqvtiy2itFCiBIMo+ND6R6HSFwnruTOzu5O4a73L3PnmnO9+595z7t4LkLgsW5beJQIsGq4t5dPis8fmxMQ6dMF90A190C0rjpUqlSYBG+PCv9rt7yDG3tf2t/f/Z+uuUEcBiN2F2Kw4yiLiZQD+FcWyXYAEQfvICddi+AnEO2ycIOISw7UAVxieD/Cyz5mRMohfRSwoqoz+xNuIB+cj9loEB3Pw2448NaitKSLLRck2q5pOI9O9g/t/tkXda8Tbg0+PszB9FN8DuPaXKnKW4YcQn1Xk3HSIry5ps8UQ/2W5aQnxIwBdu7yFcgrxPsRjVXu8HOh0qao30cArp9SZZxDfg3h1wTzKxu5E/LUxX5wKdX5SnAzmDx4A4OIqLbB69yMesE1pKojLjVdoNsfyiPi45hZmAn3uLWdpOtfQOaVmikEs7ovj8hFWpz7EV6mel0L9Xy23FMYlPYZenAx0yDB1/PX6dledmQjikjkXCxqMJS9WtfFCyH9XtSekEF+2dH+P4tzITduTygGfv58a5VCTH5PtXD7EFZiNyUDBhHnsFTBgE0SQIA9pfFtgo6cKGuhooeilaKH41eDs38Ip+f4At1Rq/sjr6NEwQqb/I/DQqsLvaFUjvAx+eWirddAJZnAj1DFJL0mSg/gcIpPkMBkhoyCSJ8lTZIxk0TpKDjXHliJzZPO50dR5ASNSnzeLvIvod0HG/mdkmOC0z8VKnzcQ2M/Yz2vKldduXjp9bleLu0ZWn7vWc+l0JGcaai10yNrUnXLP/8Jf59ewX+c3Wgz+B34Df+vbVrc16zTMVgp9um9bxEfzPU5kPqUtVWxhs6OiWTVW+gIfywB9uXi7CGcGW/zk98k/kmvJ95IfJn/j3uQ+4c5zn3Kfcd+AyF3gLnJfcl9xH3OfR2rUee80a+6vo7EK5mmXUdyfQlrYLTwoZIU9wsPCZEtP6BWGhAlhL3p2N6sTjRdduwbHsG9kq32sgBepc+xurLPW4T9URpYGJ3ym4+8zA05u44QjST8ZIoVtu3qE7fWmdn5LPdqvgcZz8Ww8BWJ8X3w0PhQ/wnCDGd+LvlHs8dRy6bLLDuKMaZ20tZrqisPJ5ONiCq8yKhYM5cCgKOu66Lsc0aYOtZdo5QCwezI4wm9J/v0X23mlZXOfBjj8Jzv3WrY5D+CsA9D7aMs2gGfjve8ArD6mePZSeCfEYt8CONWDw8FXTxrPqx/r9Vt4biXeANh8vV7/+/16ffMD1N8AuKD/A/8leAvFY9bLAAAAOGVYSWZNTQAqAAAACAABh2kABAAAAAEAAAAaAAAAAAACoAIABAAAAAEAAACgoAMABAAAAAEAAAClAAAAAEzEtMMAABB8SURBVHgB7Z1rzFxVFYYRhLbcJBRCIdiPcisiUpSWm/yQSzVA1CalBlIDISlSJUgiKAYwBlL4ZRQxhNIAYuIfWiEE0GJCQDQGSgETKCjUYCkkUG5WCnIVfZ/4DZkOZ85Ze5+zz2VmreTNmTl7r7Xe9e49Z85lf/Nts42bK+AKuAKugCvgCrgCroAr4Aq4Aq6AK+AKuAKugCvgCrgCroAr4Aq4Aq6AK+AKuAKugCvgCrgCroAr4Aq4Aq6AK+AKuAKugCvgCrgCroAr4ApEKPCJCJ9RdZmlwk4Tjhb2nizyRW3XCL8V/jG5zzeuQKUKHKRotwofCv8dAtroQ183V6AyBb6hSFuEYRNvcD998XFzBUorcLEiDE4w63t83VyBaAWulKd1sg3rRww3VyBIAS66rhGGTarQ/cTyC7mgIRjfztup9JuF0ElW1P8mxSS2myswVIHt1bJSKJpMse3EJoebK/AxBaZpD/fxYieX1Y8c5HJzBT5SYBe9+oNgnURl+5GLnG6uwDa7S4OHhZhJxVdq7Fc2OcntNsYKzFDtTwgxk48LFS4qyly0kBsObmOowIRqXi/ETL6fy6//tgqv2RcTCw5wcRsjBWar1ueFmAmzLEcn2mJibpQfnNzGQIE5qnGTEDNRvm/Qhz4xseEEN7cRVuAY1fZPIXSC/Ec+SwN0oS8+oXngBke3EVTgJNX0phA6Kd6Xz+IIPfDBNzQfHOHqNkIKfE21vCOETgZ8vl5CB3xj88LZbQQUOFM1xB6JTq6gfmLEHnnh7tZhBb4l7rHnYsdVWDexYs89qcGtgwpcJM6hX7n0f1k4IkG9xCR2DCdqceuQAleIa8xAc2/wkIR1Ejv2/iM1ubVcAZ5IxC4k/bt896uhPnKQK+YD4gtbaxig2BTbypFFnzEDu05+vT+xjM0f4kcucsZwpUZqdWuRAizyvFWIGdC18pveQC3kJHcMZ2r1ha0NDFpWyqnaGbuQ9AH57poVtKZ95IZDzCSkZmp3a1CBMgtJV4v3tAa591LDAS4xk/B++fnC1p6SNW9ZzLlGiBm4VfLboWa+eengAqeYWtDAF7bmqZugbYZiPiHEDNgv5bddAk5lQ8IJbjE1PS4/NHGrQYEJ5VgvxAzUtfLjVk1bDW5wjKkNTdDGLaECBys2izdjBihvIWlCylGhyyxsRSO3BArMUcxNQszk+0ECPqlDwjmmVjRCK7cKFThGsV4XQgeEn0tbWiGPukPBnRpC60YrNHOrQIETFWOLEDoILMFaXEH+pkNQA7WE1o9maOdWQoGvyvdtIVT8d+SzoETetrlSCzWF6oB2aOgWoUDTC0kjKCd18YWtSeXdOvi5ehuzkHSz/KpcSLo1q+bfURs1hh4J0RJN3QwKXKQ+oQLTn8WenzfE73oXavSFrYlG8QrFjZl8L8jvkESc2hiWWqk5Ris0dhtQgCcAPxNiBK1rIekA5cbf7icGsQtb0RrN3aQAiytvFGImX90LSds2YGUWtqI52o+1lVlI+oiUmz7W6v2/eDRAi5gP8K3yG9uFrVNV/N2Rwv1Rfk0uJFX6VhlaoEnMJGQMGIuxMhZR3i/ECNaWhaRtG7BpIlRmYevObSsoFR8WT64RYibfb+TXpoWkqTSKjYs2aBSjLWPC2Iy07aXqHhdiBLpFfm1cSCparTI0ukWI0ZixYYxG0maqqmeEGGF+IT+/bWCfFmiFZjFaM0aM1UhZmYWkV42UEvUWg3Yxk3Cj/EZmYevnVMxLkUJcIj+3cgqgYcwkZMwYu04bv3u8SQgVgEWY3+505e0ij5YxC1sZu87+djW3Wv4mhE4+Fl9+U3CrVgE0jVnYyhgylp2zFWIcOvlGbSFp2wYtdmErY9kpmyu2oYf8t+Qzv1NVdpMsGqN1yMGBsWRMO2N3iGlIgSyy/GJnqus+UbQOXdjKmHbCWKHxgWCdgOOykLRtgxe6sJUxZWxbb98RQ+vkG7eFpG0bvM+IUMjC1k7cmVhpnIBvqB8CuDWrAGPAWFgOGoxt6+1JMbQU86PWVzI+BBkLy5gxtq23f4mhpZiDWl/J+BBkLCxjxtg2YiELAfgTQMtS7+3VjxNbt+YV+KQocJO6yLgd08iKpJAJyCfJYiExLfG8TzkFWj1uliNaufLd2xXIUcAnYI443pReAZ+A6TX2DDkK+ATMEceb0ivgEzC9xp4hRwGfgDnieFN6BXwCptfYM+Qo4BMwRxxvSq+AT8D0GnuGHAV4VOM22gp8SeV9SuC58BeELwt7CJ0zy0Nt62OfzhU/QoT51vuK8Duhf0xbX2I/2bzXrS/ECX6kwEl69ZTQiQNH3qTrb/uoOn/RCQV2FMtfN8U0ZOWK9VMSErOpuj1vSxTwq+CWDMS40vAJOK4j35K6fQK2ZCDGlYZPwHEd+ZbU7ROwJQMxrjT8SUjcyM+U23nCPIGrfv6dwg3CBqENNiESPX7wWSvA7znedNX67/Xlve5qfVbep6hj1o8AsW+RNUjCfguH8Pu39p+aMG/y0HmTrr8tOZEGE8xR7neF/nr7X7+ntiMa5Hd4AT+489sxnbR+ofNed7I4I2l+SSqvdtpuN8ZK0W2Vgd9dKRLXEbNI+F57HVyayHGoklp+G5E/4J/VAMEJ5bT8ehk1HNYAv9IpexOsaFs6UUsD3CleRbX32q9voIbrAvjxb7w6Zz1xi7adK8xA+Ez1Kaq7v50jUZ1HGY7Oob8TvdhQd6u69Auc97pVpCsgc4BivCrk1ZzVdp986liYQY57I/i9Jp8Dhc5YlshZ+zpTkIHodPXhPwxl1WnZV8f/Q7m4BL/18u3M6miL4PQZFdtbhTwqWOvO6sfX4vEJBTlOsbn1k5Xbuu8x+e+TkGNloa0FVZawwUD87cRGwVpzXj++6lL8YuxsxY05Ncji+rxiHSm02rKIZ+1rdREF5PiNvEuFskeVQV1eUcyjCnKHNM9V55eFwTxl3lPz5QIatNKsxbWSvIEUj6nWCdY6Q/vxz3ouFMpcmOB7gfC2EJrf2v9JxT5NaJ1ZC2gd8RxC/Ev7swQe1lvrK9vvEeWaL4TayXKom+fZyolGrTCr8K0gO4QEq394VrtEuE14U7DWVXU//hrtMoFzL/4j+qCxjzb6cFSqOr81HhrxePFcAe34CebKLOTrAMIWC4lpiRfaZ6YclgrzhJ0FeCPajEkwCaswHuwvFJggx5YMyI1rLno2T8bhD8knhLJcH1SMqwQ+bFOEKgyumwT+7SvnjYw3k5Sj83KBOpKY9ROTJLkx6Onqx7IjK9fYfgjOOSO2p/CMEBsrlR+c4IbBFc6pcvXioj1jkMR6SYq2SZIbghYtlSribW1/UVwGb1nsr33st8ZI3Q8us4R+g3MdHPlmYCwqN6tolSc2BlylflaOsf0eUo6JIXwO1v5na+BQxB0OcMkyuFNDUYyy7SuzkpfdZyVVNk+sf1U3ZbPq5LznSqHonGwv9anzSnWQK7nhkGfUQC3UNOhf1XvGonKzkqs8sTFgqntja5T/aCMHuk0RfiJ8KFg1K9uPXOQkt9WoidrK5s7yZywqt6xEWfsqT2wMyDPNLD6x+zYo3mIh9qr+BPmuE2LzW/3IQa4YozZq3CBY81n6MRaVmyUxfZqy85XYyjGvH+dIZwhFX7eWOnmstUTg1kRezpg2YhK7ikdn1ErNVZ0fMhaVm1WkyhMbAzIQqwUrz/5+T8vvaoFFCCkMbguEe4T3hf7cIa/xJQaxqph4CvMxQwO0QJMQbr2+jEESbr0ERVvlb8y44bxM4IbuMJ6sTnlUWC6cI8wW6rTdlGyRsELgHGyLMIwrbfShLz741mlog0ZohWZoN4wrmqN90JMSzgGsRmKLhcS0xIvpgwjcithJ4I+EADdJX5jcatMaQy9uGPP0Y9dJVm9oy79QfUWw6j7pmnyzozLsK7DlSAfeErjxzRE6yEImi1WIkJhBZL3z6Cmw7eiV5BV1SQGfgF0arRHk6hNwBAe1SyVx/8ctXIGZcjlPmCdwzvuIcIOwQWiDTYhEjx981grwe443XTUuQizoan1W3qeoI1d9g1qwb5E1SMJ+CxU7ix93AViW1VkbFHzY+84WaCBetOTrPcU4whAnVZfDFfhdYdjY0Oa/jpVK/Rri3pEzuL1Bv70GHsNSrDLwu2uYc9v39wQu2ra9jlh+h8rRssLFfx0rVuECP+v6sSkFcbrafKeIF334eu3XN1DkdQH87m6AX+mUrxsLbPIcqHSRQwKcaay9NwH5sB42JFaK3RydQxc5LE5BJGXMvyh4T+C87bUpSTQQ+wDlfNVYe78u98mnjseS5Lg3gh8LCw4UOmO/EtN+gYe95pM4vzNV5ROdrmYesg+rtWj/JfnhK2m9uAS/9fLdoxIWNQQ5K6BQLvd/KOxSA69UKfZWYJYgFU2yvHY+jMenIqi4xwnc+snjUNT2mPz3ERqxkK8Ilgu9JEwNYIo4Twusa6vCblKQm6sIVBCDRZnccvl0QT9LM+fOTMK/WjoH9Jmtvn8WOEqXNZapLRD4wLXabhS7ok9UqvaHlTtosWOEkqxtu1Qoe1QZ1IB1fUdF8BnmMlcNLwuDecq8p+bLBTRore0vZu8IZQqN8eWr7LOJVTlV8dclrA3dLhRCvnXUfSvD9wLhbSFGR4vPk4p9mtBa+7GYWQqpss+KRGpwOsG57doaa2LhQsxF2skN8DxbOUNOudQ9vXGIfkCocoLlxfpQuTjfqcJY/cN9yiXCbcKbQl7ulG1PKfdlwpHCDsKgsY82+nBUSsklLzYa8XjxXAHtKj0Niv062F1E/iRwAzS1PaQExwYkmam+S4V5ws4C4iLajEkwCaswrvQXCkyQEH5ZuT/Qzo3C5slGLvgmhLJcH1SMqwQ+bFU9oYLrJuElgfNG5hCTlG+R5QJ11GJ7KAuTI+/TU0UbA2y109WRZUdV5M2LgeCcM2J7Cs8Ief2baIMT3DC4wjk1D7RnDGozviauEXgAn6q4E43VzFE/jkqpePTivqgcfDX2Gxdn7O/1aXoLl1n9BPUaznVwZAwYi1ptrrL9Xkgh/L7GSlYlyt9fE0f8iSF8+DPQZ2vg0M8n6zUc4JJlcK/jW2tlVvI69nFOuEx4WOD8IEug0H1TFcdiMc9rrVw477lSKDon20t96ryiHuRPbjjkGTVQCzUN+lf1nrEwWexFiCU4hfIkYTdhisVhSB8+sRbj3ph1slri9frwYfquwC8UWIxaOfH/npBS334uTJyfCpwv8xVosaPViYUjVd4g7+Xlnue03ptx2T6mQqv6BBNng7BYiJ1EJ8h3nVAlp6xY5CBXjFEbNW4QsmLH7mMsxs7OV8WxgvX7ccQ9Qyj6urUIzD3TJcJGoT9HFa+JSewqHp1RKzVTexXcGIuxMwZitRAj4NPyu1pgEUIKg9sC4R7hfSGGIz74EoNYVUw8hfmYoQFaoEkMT8YgFTeFbrdxw3mZsFkYJt5rantUWC6cI8wW6jTOiRcJKwTOK7cIw7jSRh/64oNvnYY2aIRWaIZ2w7iiOdozBmbjHGAUDRG4FbGTwD1KwE3SFya32rTGGANuGPP0Y9dJVm9oOxa/jjVZr29cAVfAFXAFXAFXwBVwBVwBV8AVcAVcAVfAFXAFXAFXwBVwBVwBV8AVGEEF/gdmWb8rEpz33AAAAABJRU5ErkJggg==;imageBackground=default;fontSize=200;backgroundOutline=0;imageBorder=none;fontColor=#000000;" parent="1" vertex="1">
                    <mxGeometry x="-9650" y="17743.28" width="1254.88" height="1294.09" as="geometry"/>
                </mxCell>
                <mxCell id="143" style="edgeStyle=none;html=1;fontSize=11;rounded=0;strokeWidth=12;shape=arrow;" edge="1" parent="1" source="14" target="46">
                    <mxGeometry relative="1" as="geometry"/>
                </mxCell>
                <mxCell id="14" value="Enriched" style="shape=image;verticalLabelPosition=bottom;labelBackgroundColor=none;verticalAlign=top;aspect=fixed;imageAspect=0;image=data:image/png,iVBORw0KGgoAAAANSUhEUgAAAKAAAAClCAYAAADbAvaeAAAEDmlDQ1BrQ0dDb2xvclNwYWNlR2VuZXJpY1JHQgAAOI2NVV1oHFUUPpu5syskzoPUpqaSDv41lLRsUtGE2uj+ZbNt3CyTbLRBkMns3Z1pJjPj/KRpKT4UQRDBqOCT4P9bwSchaqvtiy2itFCiBIMo+ND6R6HSFwnruTOzu5O4a73L3PnmnO9+595z7t4LkLgsW5beJQIsGq4t5dPis8fmxMQ6dMF90A190C0rjpUqlSYBG+PCv9rt7yDG3tf2t/f/Z+uuUEcBiN2F2Kw4yiLiZQD+FcWyXYAEQfvICddi+AnEO2ycIOISw7UAVxieD/Cyz5mRMohfRSwoqoz+xNuIB+cj9loEB3Pw2448NaitKSLLRck2q5pOI9O9g/t/tkXda8Tbg0+PszB9FN8DuPaXKnKW4YcQn1Xk3HSIry5ps8UQ/2W5aQnxIwBdu7yFcgrxPsRjVXu8HOh0qao30cArp9SZZxDfg3h1wTzKxu5E/LUxX5wKdX5SnAzmDx4A4OIqLbB69yMesE1pKojLjVdoNsfyiPi45hZmAn3uLWdpOtfQOaVmikEs7ovj8hFWpz7EV6mel0L9Xy23FMYlPYZenAx0yDB1/PX6dledmQjikjkXCxqMJS9WtfFCyH9XtSekEF+2dH+P4tzITduTygGfv58a5VCTH5PtXD7EFZiNyUDBhHnsFTBgE0SQIA9pfFtgo6cKGuhooeilaKH41eDs38Ip+f4At1Rq/sjr6NEwQqb/I/DQqsLvaFUjvAx+eWirddAJZnAj1DFJL0mSg/gcIpPkMBkhoyCSJ8lTZIxk0TpKDjXHliJzZPO50dR5ASNSnzeLvIvod0HG/mdkmOC0z8VKnzcQ2M/Yz2vKldduXjp9bleLu0ZWn7vWc+l0JGcaai10yNrUnXLP/8Jf59ewX+c3Wgz+B34Df+vbVrc16zTMVgp9um9bxEfzPU5kPqUtVWxhs6OiWTVW+gIfywB9uXi7CGcGW/zk98k/kmvJ95IfJn/j3uQ+4c5zn3Kfcd+AyF3gLnJfcl9xH3OfR2rUee80a+6vo7EK5mmXUdyfQlrYLTwoZIU9wsPCZEtP6BWGhAlhL3p2N6sTjRdduwbHsG9kq32sgBepc+xurLPW4T9URpYGJ3ym4+8zA05u44QjST8ZIoVtu3qE7fWmdn5LPdqvgcZz8Ww8BWJ8X3w0PhQ/wnCDGd+LvlHs8dRy6bLLDuKMaZ20tZrqisPJ5ONiCq8yKhYM5cCgKOu66Lsc0aYOtZdo5QCwezI4wm9J/v0X23mlZXOfBjj8Jzv3WrY5D+CsA9D7aMs2gGfjve8ArD6mePZSeCfEYt8CONWDw8FXTxrPqx/r9Vt4biXeANh8vV7/+/16ffMD1N8AuKD/A/8leAvFY9bLAAAAOGVYSWZNTQAqAAAACAABh2kABAAAAAEAAAAaAAAAAAACoAIABAAAAAEAAACgoAMABAAAAAEAAAClAAAAAEzEtMMAABB8SURBVHgB7Z1rzFxVFYYRhLbcJBRCIdiPcisiUpSWm/yQSzVA1CalBlIDISlSJUgiKAYwBlL4ZRQxhNIAYuIfWiEE0GJCQDQGSgETKCjUYCkkUG5WCnIVfZ/4DZkOZ85Ze5+zz2VmreTNmTl7r7Xe9e49Z85lf/Nts42bK+AKuAKugCvgCrgCroAr4Aq4Aq6AK+AKuAKugCvgCrgCroAr4Aq4Aq6AK+AKuAKugCvgCrgCroAr4Aq4Aq6AK+AKuAKugCvgCrgCroAr4ApEKPCJCJ9RdZmlwk4Tjhb2nizyRW3XCL8V/jG5zzeuQKUKHKRotwofCv8dAtroQ183V6AyBb6hSFuEYRNvcD998XFzBUorcLEiDE4w63t83VyBaAWulKd1sg3rRww3VyBIAS66rhGGTarQ/cTyC7mgIRjfztup9JuF0ElW1P8mxSS2myswVIHt1bJSKJpMse3EJoebK/AxBaZpD/fxYieX1Y8c5HJzBT5SYBe9+oNgnURl+5GLnG6uwDa7S4OHhZhJxVdq7Fc2OcntNsYKzFDtTwgxk48LFS4qyly0kBsObmOowIRqXi/ETL6fy6//tgqv2RcTCw5wcRsjBWar1ueFmAmzLEcn2mJibpQfnNzGQIE5qnGTEDNRvm/Qhz4xseEEN7cRVuAY1fZPIXSC/Ec+SwN0oS8+oXngBke3EVTgJNX0phA6Kd6Xz+IIPfDBNzQfHOHqNkIKfE21vCOETgZ8vl5CB3xj88LZbQQUOFM1xB6JTq6gfmLEHnnh7tZhBb4l7rHnYsdVWDexYs89qcGtgwpcJM6hX7n0f1k4IkG9xCR2DCdqceuQAleIa8xAc2/wkIR1Ejv2/iM1ubVcAZ5IxC4k/bt896uhPnKQK+YD4gtbaxig2BTbypFFnzEDu05+vT+xjM0f4kcucsZwpUZqdWuRAizyvFWIGdC18pveQC3kJHcMZ2r1ha0NDFpWyqnaGbuQ9AH57poVtKZ95IZDzCSkZmp3a1CBMgtJV4v3tAa591LDAS4xk/B++fnC1p6SNW9ZzLlGiBm4VfLboWa+eengAqeYWtDAF7bmqZugbYZiPiHEDNgv5bddAk5lQ8IJbjE1PS4/NHGrQYEJ5VgvxAzUtfLjVk1bDW5wjKkNTdDGLaECBys2izdjBihvIWlCylGhyyxsRSO3BArMUcxNQszk+0ECPqlDwjmmVjRCK7cKFThGsV4XQgeEn0tbWiGPukPBnRpC60YrNHOrQIETFWOLEDoILMFaXEH+pkNQA7WE1o9maOdWQoGvyvdtIVT8d+SzoETetrlSCzWF6oB2aOgWoUDTC0kjKCd18YWtSeXdOvi5ehuzkHSz/KpcSLo1q+bfURs1hh4J0RJN3QwKXKQ+oQLTn8WenzfE73oXavSFrYlG8QrFjZl8L8jvkESc2hiWWqk5Ris0dhtQgCcAPxNiBK1rIekA5cbf7icGsQtb0RrN3aQAiytvFGImX90LSds2YGUWtqI52o+1lVlI+oiUmz7W6v2/eDRAi5gP8K3yG9uFrVNV/N2Rwv1Rfk0uJFX6VhlaoEnMJGQMGIuxMhZR3i/ECNaWhaRtG7BpIlRmYevObSsoFR8WT64RYibfb+TXpoWkqTSKjYs2aBSjLWPC2Iy07aXqHhdiBLpFfm1cSCparTI0ukWI0ZixYYxG0maqqmeEGGF+IT+/bWCfFmiFZjFaM0aM1UhZmYWkV42UEvUWg3Yxk3Cj/EZmYevnVMxLkUJcIj+3cgqgYcwkZMwYu04bv3u8SQgVgEWY3+505e0ij5YxC1sZu87+djW3Wv4mhE4+Fl9+U3CrVgE0jVnYyhgylp2zFWIcOvlGbSFp2wYtdmErY9kpmyu2oYf8t+Qzv1NVdpMsGqN1yMGBsWRMO2N3iGlIgSyy/GJnqus+UbQOXdjKmHbCWKHxgWCdgOOykLRtgxe6sJUxZWxbb98RQ+vkG7eFpG0bvM+IUMjC1k7cmVhpnIBvqB8CuDWrAGPAWFgOGoxt6+1JMbQU86PWVzI+BBkLy5gxtq23f4mhpZiDWl/J+BBkLCxjxtg2YiELAfgTQMtS7+3VjxNbt+YV+KQocJO6yLgd08iKpJAJyCfJYiExLfG8TzkFWj1uliNaufLd2xXIUcAnYI443pReAZ+A6TX2DDkK+ATMEceb0ivgEzC9xp4hRwGfgDnieFN6BXwCptfYM+Qo4BMwRxxvSq+AT8D0GnuGHAV4VOM22gp8SeV9SuC58BeELwt7CJ0zy0Nt62OfzhU/QoT51vuK8Duhf0xbX2I/2bzXrS/ECX6kwEl69ZTQiQNH3qTrb/uoOn/RCQV2FMtfN8U0ZOWK9VMSErOpuj1vSxTwq+CWDMS40vAJOK4j35K6fQK2ZCDGlYZPwHEd+ZbU7ROwJQMxrjT8SUjcyM+U23nCPIGrfv6dwg3CBqENNiESPX7wWSvA7znedNX67/Xlve5qfVbep6hj1o8AsW+RNUjCfguH8Pu39p+aMG/y0HmTrr8tOZEGE8xR7neF/nr7X7+ntiMa5Hd4AT+489sxnbR+ofNed7I4I2l+SSqvdtpuN8ZK0W2Vgd9dKRLXEbNI+F57HVyayHGoklp+G5E/4J/VAMEJ5bT8ehk1HNYAv9IpexOsaFs6UUsD3CleRbX32q9voIbrAvjxb7w6Zz1xi7adK8xA+Ez1Kaq7v50jUZ1HGY7Oob8TvdhQd6u69Auc97pVpCsgc4BivCrk1ZzVdp986liYQY57I/i9Jp8Dhc5YlshZ+zpTkIHodPXhPwxl1WnZV8f/Q7m4BL/18u3M6miL4PQZFdtbhTwqWOvO6sfX4vEJBTlOsbn1k5Xbuu8x+e+TkGNloa0FVZawwUD87cRGwVpzXj++6lL8YuxsxY05Ncji+rxiHSm02rKIZ+1rdREF5PiNvEuFskeVQV1eUcyjCnKHNM9V55eFwTxl3lPz5QIatNKsxbWSvIEUj6nWCdY6Q/vxz3ouFMpcmOB7gfC2EJrf2v9JxT5NaJ1ZC2gd8RxC/Ev7swQe1lvrK9vvEeWaL4TayXKom+fZyolGrTCr8K0gO4QEq394VrtEuE14U7DWVXU//hrtMoFzL/4j+qCxjzb6cFSqOr81HhrxePFcAe34CebKLOTrAMIWC4lpiRfaZ6YclgrzhJ0FeCPajEkwCaswHuwvFJggx5YMyI1rLno2T8bhD8knhLJcH1SMqwQ+bFOEKgyumwT+7SvnjYw3k5Sj83KBOpKY9ROTJLkx6Onqx7IjK9fYfgjOOSO2p/CMEBsrlR+c4IbBFc6pcvXioj1jkMR6SYq2SZIbghYtlSribW1/UVwGb1nsr33st8ZI3Q8us4R+g3MdHPlmYCwqN6tolSc2BlylflaOsf0eUo6JIXwO1v5na+BQxB0OcMkyuFNDUYyy7SuzkpfdZyVVNk+sf1U3ZbPq5LznSqHonGwv9anzSnWQK7nhkGfUQC3UNOhf1XvGonKzkqs8sTFgqntja5T/aCMHuk0RfiJ8KFg1K9uPXOQkt9WoidrK5s7yZywqt6xEWfsqT2wMyDPNLD6x+zYo3mIh9qr+BPmuE2LzW/3IQa4YozZq3CBY81n6MRaVmyUxfZqy85XYyjGvH+dIZwhFX7eWOnmstUTg1kRezpg2YhK7ikdn1ErNVZ0fMhaVm1WkyhMbAzIQqwUrz/5+T8vvaoFFCCkMbguEe4T3hf7cIa/xJQaxqph4CvMxQwO0QJMQbr2+jEESbr0ERVvlb8y44bxM4IbuMJ6sTnlUWC6cI8wW6rTdlGyRsELgHGyLMIwrbfShLz741mlog0ZohWZoN4wrmqN90JMSzgGsRmKLhcS0xIvpgwjcithJ4I+EADdJX5jcatMaQy9uGPP0Y9dJVm9oy79QfUWw6j7pmnyzozLsK7DlSAfeErjxzRE6yEImi1WIkJhBZL3z6Cmw7eiV5BV1SQGfgF0arRHk6hNwBAe1SyVx/8ctXIGZcjlPmCdwzvuIcIOwQWiDTYhEjx981grwe443XTUuQizoan1W3qeoI1d9g1qwb5E1SMJ+CxU7ix93AViW1VkbFHzY+84WaCBetOTrPcU4whAnVZfDFfhdYdjY0Oa/jpVK/Rri3pEzuL1Bv70GHsNSrDLwu2uYc9v39wQu2ra9jlh+h8rRssLFfx0rVuECP+v6sSkFcbrafKeIF334eu3XN1DkdQH87m6AX+mUrxsLbPIcqHSRQwKcaay9NwH5sB42JFaK3RydQxc5LE5BJGXMvyh4T+C87bUpSTQQ+wDlfNVYe78u98mnjseS5Lg3gh8LCw4UOmO/EtN+gYe95pM4vzNV5ROdrmYesg+rtWj/JfnhK2m9uAS/9fLdoxIWNQQ5K6BQLvd/KOxSA69UKfZWYJYgFU2yvHY+jMenIqi4xwnc+snjUNT2mPz3ERqxkK8Ilgu9JEwNYIo4Twusa6vCblKQm6sIVBCDRZnccvl0QT9LM+fOTMK/WjoH9Jmtvn8WOEqXNZapLRD4wLXabhS7ok9UqvaHlTtosWOEkqxtu1Qoe1QZ1IB1fUdF8BnmMlcNLwuDecq8p+bLBTRore0vZu8IZQqN8eWr7LOJVTlV8dclrA3dLhRCvnXUfSvD9wLhbSFGR4vPk4p9mtBa+7GYWQqpss+KRGpwOsG57doaa2LhQsxF2skN8DxbOUNOudQ9vXGIfkCocoLlxfpQuTjfqcJY/cN9yiXCbcKbQl7ulG1PKfdlwpHCDsKgsY82+nBUSsklLzYa8XjxXAHtKj0Niv062F1E/iRwAzS1PaQExwYkmam+S4V5ws4C4iLajEkwCaswrvQXCkyQEH5ZuT/Qzo3C5slGLvgmhLJcH1SMqwQ+bFU9oYLrJuElgfNG5hCTlG+R5QJ11GJ7KAuTI+/TU0UbA2y109WRZUdV5M2LgeCcM2J7Cs8Ief2baIMT3DC4wjk1D7RnDGozviauEXgAn6q4E43VzFE/jkqpePTivqgcfDX2Gxdn7O/1aXoLl1n9BPUaznVwZAwYi1ptrrL9Xkgh/L7GSlYlyt9fE0f8iSF8+DPQZ2vg0M8n6zUc4JJlcK/jW2tlVvI69nFOuEx4WOD8IEug0H1TFcdiMc9rrVw477lSKDon20t96ryiHuRPbjjkGTVQCzUN+lf1nrEwWexFiCU4hfIkYTdhisVhSB8+sRbj3ph1slri9frwYfquwC8UWIxaOfH/npBS334uTJyfCpwv8xVosaPViYUjVd4g7+Xlnue03ptx2T6mQqv6BBNng7BYiJ1EJ8h3nVAlp6xY5CBXjFEbNW4QsmLH7mMsxs7OV8WxgvX7ccQ9Qyj6urUIzD3TJcJGoT9HFa+JSewqHp1RKzVTexXcGIuxMwZitRAj4NPyu1pgEUIKg9sC4R7hfSGGIz74EoNYVUw8hfmYoQFaoEkMT8YgFTeFbrdxw3mZsFkYJt5rantUWC6cI8wW6jTOiRcJKwTOK7cIw7jSRh/64oNvnYY2aIRWaIZ2w7iiOdozBmbjHGAUDRG4FbGTwD1KwE3SFya32rTGGANuGPP0Y9dJVm9oOxa/jjVZr29cAVfAFXAFXAFXwBVwBVwBV8AVcAVcAVfAFXAFXAFXwBVwBVwBV8AVGEEF/gdmWb8rEpz33AAAAABJRU5ErkJggg==;imageBackground=default;fontSize=200;backgroundOutline=0;imageBorder=none;fontColor=#000000;" parent="1" vertex="1">
                    <mxGeometry x="-7407" y="17557" width="1487.88" height="1534.37" as="geometry"/>
                </mxCell>
                <mxCell id="17" style="edgeStyle=orthogonalEdgeStyle;rounded=0;orthogonalLoop=1;jettySize=auto;html=1;dashed=1;strokeWidth=11;flowAnimation=1;entryX=0;entryY=0.5;entryDx=0;entryDy=0;shape=arrow;" parent="1" source="156" target="108" edge="1">
                    <mxGeometry relative="1" as="geometry">
                        <mxPoint x="-19452.31" y="19792.666666666668" as="sourcePoint"/>
                        <mxPoint x="-16098.07" y="19765.999999999996" as="targetPoint"/>
                    </mxGeometry>
                </mxCell>
                <mxCell id="55" value="ShortCut" style="edgeLabel;html=1;align=center;verticalAlign=middle;resizable=0;points=[];fontSize=200;" vertex="1" connectable="0" parent="17">
                    <mxGeometry x="0.1855" y="26" relative="1" as="geometry">
                        <mxPoint x="-4" as="offset"/>
                    </mxGeometry>
                </mxCell>
                <mxCell id="34" style="edgeStyle=orthogonalEdgeStyle;rounded=0;orthogonalLoop=1;jettySize=auto;html=1;strokeColor=default;strokeWidth=12;align=center;verticalAlign=middle;fontFamily=Helvetica;fontSize=11;fontColor=default;labelBackgroundColor=default;endArrow=classic;shape=arrow;" edge="1" parent="1" source="26" target="120">
                    <mxGeometry relative="1" as="geometry">
                        <mxPoint x="-16017.980829808293" y="16210" as="targetPoint"/>
                    </mxGeometry>
                </mxCell>
                <mxCell id="56" value="Batch" style="edgeLabel;html=1;align=center;verticalAlign=middle;resizable=0;points=[];fontSize=200;" vertex="1" connectable="0" parent="34">
                    <mxGeometry x="0.2351" y="42" relative="1" as="geometry">
                        <mxPoint x="-8" as="offset"/>
                    </mxGeometry>
                </mxCell>
                <mxCell id="26" value="" style="image;aspect=fixed;html=1;points=[];align=center;fontSize=12;image=img/lib/azure2/databases/SQL_Database.svg;" parent="1" vertex="1">
                    <mxGeometry x="-20594" y="15688" width="837.75" height="1117" as="geometry"/>
                </mxCell>
                <mxCell id="27" style="edgeStyle=orthogonalEdgeStyle;rounded=0;orthogonalLoop=1;jettySize=auto;html=1;entryX=0;entryY=1;entryDx=0;entryDy=0;strokeColor=default;strokeWidth=12;align=center;verticalAlign=middle;fontFamily=Helvetica;fontSize=11;fontColor=default;labelBackgroundColor=default;endArrow=classic;shape=arrow;" parent="1" source="28" target="9" edge="1">
                    <mxGeometry relative="1" as="geometry"/>
                </mxCell>
                <mxCell id="28" value="&lt;font style=&quot;font-size: 200px;&quot;&gt;Snowflake Fabric Mirroring&lt;/font&gt;" style="rounded=1;whiteSpace=wrap;html=1;fontSize=60;" parent="1" vertex="1">
                    <mxGeometry x="-16267" y="21327" width="1215" height="804.73" as="geometry"/>
                </mxCell>
                <mxCell id="29" style="edgeStyle=orthogonalEdgeStyle;rounded=0;orthogonalLoop=1;jettySize=auto;html=1;strokeColor=default;strokeWidth=12;align=center;verticalAlign=middle;fontFamily=Helvetica;fontSize=11;fontColor=default;labelBackgroundColor=default;endArrow=classic;shape=arrow;" parent="1" source="30" target="28" edge="1">
                    <mxGeometry relative="1" as="geometry"/>
                </mxCell>
                <mxCell id="53" value="Mirroring" style="edgeLabel;html=1;align=center;verticalAlign=middle;resizable=0;points=[];fontSize=200;" vertex="1" connectable="0" parent="29">
                    <mxGeometry x="0.2535" y="-30" relative="1" as="geometry">
                        <mxPoint x="-2" as="offset"/>
                    </mxGeometry>
                </mxCell>
                <mxCell id="30" value="" style="shape=image;verticalLabelPosition=bottom;labelBackgroundColor=default;verticalAlign=top;aspect=fixed;imageAspect=0;image=data:image/png,iVBORw0KGgoAAAANSUhEUgAAACAAAAAoCAMAAACo9wirAAAAAXNSR0IArs4c6QAAAARnQU1BAACxjwv8YQUAAABjUExURQAAACC/3zCv7yu16ii35yaz5iu16im26Ciz5yu15im26Sm06Ci15yq15im06Ci16Cq15yq16Cm26im16Sq16Sm26Cm16Si16Sm26Cm16Cm16Sq16Cm16Cm16Cm16Sm16Cm16BLF4PUAAAAgdFJOUwAIEBggKDA4QEhQWGBocHiAh4+Xn6evt7/Hz9ff5+/3v+H4wgAAAAlwSFlzAAAXEQAAFxEByibzPwAAAg5JREFUOE+NVNmWqzAMC0tL2AMJJWVp/P9feWWH9pZp55zRw0zqyMaWBeqFVBvjPDAZU+VH8IWs9XTC0l+OK0Z1P8InrO1xnUvyYzJaS+VM695tHFuuco9zcJqPFz+nqvOdnO0DWQgnC9GMzMq7diDKlaelGrxF1w6MTPVEA2ekjZRlAoU5tlgHGtVME46ONtfkuS6avtBFUg532jOF7FU9qGHy9Yb0KV1nS2WJ4xajRIrISYXHrbumumwxyyWr7Uo7GuuEEEsk1Yh20cNKtE+tDFyESCCb8hS3XqbYaGksT5H0uI8E2k3MYB2sN3zOWtGKCXENy1BqFBJASomttRC0aiIZCN7vx5H2PskPAnIchD1hqhGOBJEeMzcjzBAIf2xbxJgWAkv2HQlsAAJtstVPZGwTJmBdX4okvbQFwsz/p+bESSvHKsVH6ALqAoufjakrY26eRUdz1XPMpPlhWcbapseY4ra8u73UQu5sxDEnHfjNgMZYt361E3XYniv4BJ4MAi2yyk+k7DImUOiTI/aOVtYGAusVXHXmaMvXhw466nD3o+m0bs3g49R78ycdApVc8ncdlvhiMT51qOmhLAWR8hvynWaVBQovLc8osW9YBc6lOxvwBzTbQN6Akje/u/pN8bQapeXjG5NZ/gHA9BbOfRp8/v+ZylqW/YR79/4VA5LKeC91d+/H5nieUv8A4G9K0d+qFlUAAAAASUVORK5CYII=;container=0;" parent="1" vertex="1">
                    <mxGeometry x="-20710" y="20983" width="1247.2" height="1559" as="geometry"/>
                </mxCell>
                <mxCell id="39" value="" style="shape=image;verticalLabelPosition=bottom;labelBackgroundColor=default;verticalAlign=top;aspect=fixed;imageAspect=0;image=data:image/png,iVBORw0KGgoAAAANSUhEUgAAAD0AAAA9CAYAAAAeYmHpAAADYUlEQVRoBe2aLZTiMBCAkUgkEolEIpFIJBKJROKQSCQSiUQikUjkSiQSicy9r3uTC0PSg9LuNVzmPTZl+5N8mR9mkjbMfyiNPObz+WxWq5UZDAbZp9VqmUajUbtPs9m0Y1wsFubr6ysPy3ihb7ebmc/ntYN7ZcInk4m5Xq9e+Afo4/Fout1u1MAyOe122+z3+wfwO2iA5YZPane73R24hcak8zTMOfHtOra9Xi+oMDR+uVwsuIUO+TD/Z0JikeVyaQhs2lLH47FFyKCJdvoivh8OB3thTAfw+H5pxL8zaMK8hkbDMct2u31gIqIjGTQ+6kJjHjGZdEg52s87nc4faL640Fz8CYJmXS6Okeyvdnwxg9jBfW5rofVsJOiI1Z00/btQSubt+nXy6eTTcc1AZYGMcnQ2mxlcgtTvb0JhT1FAAcCg3OondC85M31Mp9On+pDnVAK9Xq8fMh4GFhKAdflKYZC3vPNqH27fpUOjIZ3JSTAMVWdoS65xW3J/nxTpw31O6dCAuQN3jzFfn+jCRu5h8nxSpA/3OaVDh2pwQEK+jR8LqNti8j4p0of7nNKhebhPc1RsobI0pDn8NiSv9uE+pxJofG44HFrt9fv93KDEgDabjV3VwKxDriCDL9KH3FsJtDy8rm2CTgUHyydqfyoVHHV12CfGlXw6+fQbPk0BQYEhOTi/2fyu5gkVkxQd7DHlJSZ5z3nmXCXm7SYmEgwBCmVkoV1REpYqpHToInnxq7n3uxNROnQoj0bjodTSl0dzfajKqh10kVr31Xq6dtAMCI2KL0vr7gPrQTNRet8MLZ9OJ31pKd9LN28ZFdGYDG40Gj0ViYn4DAZTR/N5S0XSR9G2MuiiA/qJ+xJ0ysjeyMh+wkTf6SOZdzLvZN7fb/imlZN3Isk/vjcFMh3IdD5MnfwJ4itw4MreI2NnQgoGWrZPP0F0KctKjYVmyceF5li/Ix3bJFDIyDKWsIkFZ5r2LQjod6Rjgma5Sr8XCrgsS32/LGnM3UaczAzgrGvFJGhYuys8TIKs3VloCnzfO9LcgG8Q/uv+wXy1STN+vVBhodEm6hctf1KLsly5g+YES0C+2Yp1Enwv6z9AAx7yi5jAWX8PxSMvtJgC5s7aV0ywxB92TSRoCYvb5kK7F37S8S+x2/Jp1QzKywAAAABJRU5ErkJggg==;" vertex="1" parent="1">
                    <mxGeometry x="-4212" y="16520" width="600" height="600" as="geometry"/>
                </mxCell>
                <mxCell id="40" value="" style="shape=image;verticalLabelPosition=bottom;labelBackgroundColor=default;verticalAlign=top;aspect=fixed;imageAspect=0;image=data:image/png,iVBORw0KGgoAAAANSUhEUgAAAD8AAAA8CAYAAADRy2JxAAAFAUlEQVRoBe2aLVD0QAyGTyKRSCQSiUQikUgkEolDIpFIJBKJRCKRSCQSebLfPJ3JTb50s83ubduDITM3/bndNG/+d9tVNxN9fn52r6+vMz0t9phVbFj9qLe3t+7o6KhbrVab383NTbder+uZNpo5KfjHx8cNYA2e8+Pj4+77+7sRjDo2k4HPARdFLK2AScDf3t66FhfgciQkyAdLUHPwHvCzs7Pu+fm529vbGyjm8PBwEQU0BX91dTUAhoUBLgnu5eUlqYCDg4Pu/f19VgdoBv7y8jIJnPsCXJBRAfb39wfjuTenArYGD7Dz8/MBECwOcI8A6Slgrn5gK/AAx6UleekjtXyMUADxrudxTl4gPKamavDU6JOTk4HgCE/SixKZ3lMACXJKqgIPcGq0tRjXDw8PxfKiANsFCm/6hamoGDyCesC3ETSn0G345hRXBD7nok9PT7nnhP7LKaAklEIP67ouDH6u5JRLoq0VEAI/d1nKKYBGqhWNgl+qIUEBucaphQKy4HehFfUUcHFxMegcSxXigt+lRQgNk5Q+fdRrhlLgjE+C99biSy4/c6tFqkQNDcDTpGjtyvnSGw+Au7+/byrbf+A97dLG1mq3xiK5OZ5X1hhnA57kJlbWx23jKgek9j8UkNoUOT09LWLZg//6+urYTNCgOd9F4ILOq0Qla4se/N3d3QB4bi0uAix9TCkAI0apB283I2BAk/ETKGU41iAR6sHbHRUY/hQiZG24RhdZPXg7eaol5FQKrZX/D3yt5qayZCnfWvn/LF+ruVILTTWerW66U9lei+asX2F5rVRqP78I/TrwEdAy5g/8EjFPc0KsRrsxsZY9ss1W+3prEct/fHxsFlJ0l9EYtcD1FhcteiktAt6uJcjSpYTFrceWvt6aHby3GVGynmDRJWVNK4B3fiWbLrOCx1qpTQgAcJ9wiJC3oQkfNjSiCpgFPJZKLT211Tgfi3/4eF9/aF54AIoeo8nAY0XpvFK7RFpYe359fd3PlT0FKgLLVKxqx+auyS2EGXKkvKEpeARMxWJKQLbByfJ2LyE1NnePrTYAeuGk5zKGCiHh1Qw8DPWDcudYRCzhvQfMzZf/9B4jbh71MOZBzcB7WVwE5Yhw7L1bwq0RSI/NnWPBVHWgcdK13+OBtzUFT3x6Lsy+P7uqEsMWvFyPxTX8tdvKPHtEmSTG1OcuKIScAjWzPMxwZUCyvJREMwbYCs41wpOksO62vHTihZfuJpuCTwHZ5XuLgcdLsC5xug2R6CI1PfWMRcDjipKZieNa4XWnx/v6UloEfIuFDSXSZnM8qYR68LYxQbipiJWXFZrrkndsyJb6ALJqYZOqjQgjjUgrReDeXjnkPlk+Qt57epRIvxCVu7c89TVljbF7ke9rAYMw1NYxfuSBsfinXEX4gGmMevAMImGMMdX/I2iuhvMfMUi9l+Sm53vndG8A1EpAedTnki4Q/oxHBvJDijbgeUAqjjwhpUvSTIln8kVkkUF8Mt4LA3mu902u/A/AiDcwnmfS+Ul4bcALiMi6G0bWrVJvS0VAe9QbDq0WNhFFihyS0AfgRQnSFuI2qZ9NKpGFDVbGSpZ4VonXAYJ8Y8MOPraMCmB9xDMhF7wVcOwaQTx3x3UBbRVmeVJhxtyc3KTzgeXBNd7EOC+k5BPWZuB5KK5PGQIoP7yhpn3FgswVPhxJeGPKSykCRWk+Olz/AZEN60mSl8YUAAAAAElFTkSuQmCC;" vertex="1" parent="1">
                    <mxGeometry x="-4212" y="18016" width="630" height="600" as="geometry"/>
                </mxCell>
                <mxCell id="41" value="" style="shape=image;verticalLabelPosition=bottom;labelBackgroundColor=default;verticalAlign=top;aspect=fixed;imageAspect=0;image=data:image/png,iVBORw0KGgoAAAANSUhEUgAAADwAAAA+CAYAAAB3NHh5AAAES0lEQVRoBe2aLXAyMRCGkZXISmQlshKJrERWViLrKpHIysrKSiSysrISiUQi75vnZpYJ+21yuZAAR29nmBxcLtk32Z93cwyqPyaDc+L9/Pys5vN5NZlM6s/z83P1/v5e7ff7s6lxFsA/Pz/V4+NjNRgMzM/Dw0O1Wq3OAro4YHb17u7OBKoXYLFYFAddFDAANKim75h5SRMvAhiFUdwHDhMOmTj3drtdkd3ODhhFCUoW2NFoVOHPIpvNJtj39/dXumZrswJGQXbPAuvbtZA1DIfDar1eZwPLQNkAoxgKWmBns1mjX/r8nYD38fGRDXQWwCjki8RtIm8oopO/c8jJgF9fX81dZQEA0Fa+v7+r+/t7c8ynp6dGS2maLxkwvoepWiaMaaN4qhDMxuOxOTa/b7fb1KHTfJgJfQoRtFD4VCHaT6dTE7SO9m3mar3DpBUmtHYWBXPnz5eXF3MurOjr66sN1rpvK8DwXV8kRrFSslwuTdAsOvfaSDRgqhprV1MmbaOg9M212FGAfWZFJE4xKwHRts3hTkHApQJHW6Bu/1DAJJA2BUwv4JKpwQWQck1KJCdbLtaUEk3AmE7J5J8C0nomhfT8B/gc9M5SPvW3trT2CDBgLTMhOBGlr1VChYvm4AfAlHZWAYBP5C7RSiwc+vsIkZtJasAEAauOZYASRXgJwIzpO3xg0yR614BJ6tqUCfG5aWIpoO64vgMFKVNrwG9vb0eAWZFTKhJXgUtcA1oXN6QxpAasz6Dk5iWUzTWnTlls4gGwdnZOHLsu2mpx2R6wBK5+hz32TRSnksIlCBIxtSmmRl/SIM8SYEJCDiXGQHWJLZJeQs9wr4hJW28PmMgnsB6xImkB4xPASj9pAR6TQbIDtnK3KGXtGtYg93XLWJbo1CLPxVqS9JeWOerQlRKlQycgltlxiikT69Z30G5RXZ6NOU7KvsOUkFpxvku+0zvGrvsAMJYlmh/IfL4FcsfIDpjB9dEPgFyi7irAtVWNQRB8Ao9nAQUoLYtguYweowhgAUEaIyDFHL5TedGXxYp5M4F7oDyH/vhuDFj0KgZYr+y1fO8B99TS+YdNTy09jkkAIQAROfnEpAsCj/QnQjcFIYKc9CdwxbAs1C3iwyjipgyuQyzIUiJUewNWjw9JalqkIoAtZVCOXGwpFKKWjGXJVVFLzFevvny3qKWPmfGMzxU06ZDxcaMmsayJZ5K59J/bYVYL/5NVlzbkw9Y/dZp8WPPvi/mwmBQgCF68/feVedKXFjpJX56JeZsBXSU605+oHnt0nN2kXRDXeN0D7qllTy2v0TPjdep92PVhnU9JAV0X2JhwA1ryN1IzLWv7fQdrXVgIKir9HxUhODVg64wZHkuih0J26QMR0mDZ4aP3w+waZuyawC1du3S03mEAU+Fo3noroN3y8wAY0PBWXw3aRfCYtub3R4AlIMkxTFd3PFRomIAF+C22/wBZMv/ZOXaw8QAAAABJRU5ErkJggg==;" vertex="1" parent="1">
                    <mxGeometry x="-4212" y="18734" width="580.65" height="600" as="geometry"/>
                </mxCell>
                <mxCell id="42" value="" style="shape=image;verticalLabelPosition=bottom;labelBackgroundColor=default;verticalAlign=top;aspect=fixed;imageAspect=0;image=data:image/png,iVBORw0KGgoAAAANSUhEUgAAADgAAABBCAYAAACEq2cXAAAEd0lEQVRoBe2bLVArMRCAK5GVSCQSWVmJRCKRyEocsrISiUQikUgkEomsrKzMm+/mbSdv2eSSXK6Xx3RnOrnSXLLf7mbzc8fM/XKZ1eD7+Phw7+/v7vHx0T08PLjlctn7ub6+7upvNpvu3q+vrxqq/GgjG3C73bqXlxd3f3/vLi8v3Ww2q/rBOBgKg9WQJMDdbueen5/dYrGoCtNnnLOzM3d7e+ve3t6KWaOA39/f7u7uztFRnzJj/35+ft55FmPniAlII6vVqggMY6SMwdJoAPTp6SmZ8QcgsT+fz5M8dnV11RmC8OW+/X6f3LFUJEq4l2RDOAKQEg0YiHzQJ/8A0klf4yjx+vrqckOlTxH/dzIqXsKAMX0wBhk8JgdAGgw1dnFx0XU4JlRISWDJ2KE8wN+JgpB0gFSwGiBU1+t1UeiFOiz9O+FIwrOcwJgPSQdIQtE3Eh4xy4QaHPvvDA8rR4TmzQ5QxzohOUU4phoHGO0QFgeWdIC6Mh5tXXS2JXwtMQEJgRbDUwCshJgFiEeBDMW1dDRFSSjqiON7NqA0wrzXgjcxts4VouMgQG5mCsFCfZNqbY+yMmKVxDTgw1jXxR7UjZFh2fONFb6yHUNhazrQ+sj3aoDSoJSyf2NBAPTn52eSI/EO9ZnXGFdD95dZgHRIaOAtAWmlvLm56YyodcsGFDcAOsbOPddgAiZ6VQOUBln0EoaxTJardKw+iQ0oDGytqqoDCigliYCO5YBJrypiiod+I0oAYnhwRNG3txwV0IeVa6xM0uCDkn0fOU2jfokcHbBEySH3nAD/Ws9cbBNercvJgycPNh6jvz5E5YGPTE2hhzf/bZJJDbATYKqlWq3XlAf1uJLxlVv6zyyaAOTMp8aCXRby7ETYCCBNAFon66JsaQkkG4AmAFOeapWAEhlNABJKHDmUQMTuaQpwDMjmAGtDNglYE7JZwFqQkwOSxjmp4/DYepI8NPFMCgicPoLkpE7LEMhJAa33ZEKn06WQkwGy5rTmr9gRYgnkZIBsTjVgykFXLuRkgIwzFsOsF1lkW69msSNAQS05kJMCojiJRgtH9jxVFg/zWE1LKuTkgFpx4HhRVuCkLPVkU4AhOMLY38D6RunzZDOAITg8KBtXH8y/jkEeAPUZI2FyLInBoXyKhCAPgFaFY7ztlAvH83wSEFlXJyiL4QDIBCsD2i9ZI4YOVFMs21fHSij0b3lOA1ih69dh+sGA3Y4eRUjHPpx/zW9Yo6aEjGrBAePrwzXrWEtYz7JokLc9DoCxcJHGsTgNUHeosHuQdqW04OjLel8mZeWDjgdAUTj1hEvej4mtH6VNqyT1CxilBcd9jDWmCr8uhk418g9AGmUw68zqd2BdowTQ8iIBFvY/EjI+LJCcqFm/+fVoR/rEEKlwtGECSuN0boWHdJZT8hZFjmKig5Shtan8HiqjgHKTpGcdKjmA1E0dN9JvjTIJUDpiPAz9vyWSyzElC1ArRtiQZFAa7zAGrZ269jQp3pqsdfs1vg8CrKHA2G38ARDNnJfHIyw6AAAAAElFTkSuQmCC;" vertex="1" parent="1">
                    <mxGeometry x="-4212" y="17239" width="516.91" height="600" as="geometry"/>
                </mxCell>
                <mxCell id="43" value="" style="shape=image;verticalLabelPosition=bottom;labelBackgroundColor=default;verticalAlign=top;aspect=fixed;imageAspect=0;image=data:image/png,iVBORw0KGgoAAAANSUhEUgAAAD8AAABCCAYAAADg4w7AAAAMX0lEQVR4Ae3bha/cxRYHcP4QgrtTHIpri7sUWrTFIXhxdwsSPFC0SHAopLhbsODW4u6u5+UzeWfz++3dW+7dvXvfu5RJTmZ+svOb75wzx2Z2hpiOywzTMfb4F/z0yv1/Od8Xzv/4449x4oknxgEHHFDoqKOOilNPPbXQSSedFCeccEIcffTR4f6RRx4ZRxxxRGm7h4455pgGHXvssdGKjjvuuKjS8ccfH8g972cf2V9+zzc9y2/n9/12woQJ8d5777WEOE3O//XXX/Hnn3/G2WefHZtuumnMNddcMeeccxaae+65y/Ucc8wR06LZZ589OqVp9V99Nttss5VvGeOss85axrXKKqvENttsE9dff33BUp2FaYKfOnVq/Prrr3HLLbfEQgstVDr2sXnmmSeAz49pzz///LHggguW9xZeeOFYdNFFGzRs2LBAeW+RRRaJKnk/yXeQvrK/6nXzfc/ye9mH7yy++OKx3HLLxUorrRTLLLNMrLzyynHFFVdUsbfW9rid5bPPPitiu/HGG8cKK6wQa665ZowcOTLWWmutWG211cLMujdixIhCnq299tqxzjrrxLrrrtuSPOuN/BbpB2W/zXU+z/fV6623Xnl//fXXDwT4sssuW8ZpIvTx/PPPJ7TW4D01AR9++GHh+tNPPx0fffRRvPvuu0Ea0DvvvBNvvvlmvPHGG41a+39Jb731VqC33347pkyZEtdcc01stNFGMXz48Fh99dWLNOy7776twVNqkydPjrvvvjuuu+66uOCCC+Krr75qvDwUG/fff3+RAmJv6W2xxRZlKcNSW/MvvfRSWSdLLLFEEZebbrppKOKtjfmHH36IvffeO2Cad955Y9SoUfHJJ5+Ud2rgH3300VhxxRWLglh66aXjhhtuqHU0FC9++umn2H333YvIU9abbbZZWb6w1MA/9NBDRUlQbLTlVVddNRTx1sZsKW+33XaF66zU5ptvXvRBD/BPPPFELLXUUrH88ssX0zVx4sRaR4N1Qdk2U7vfZqr5KLPMMkvMNNNMReN/+umnpbsa52lJYsEkMBu0fLfL119/XazFAw88EHTMZZddFmeeeWZxrM4666xAnCxSCUg75bDDDitrnv3feeedg/Om1MC7YTBPPvlkQym087G+/Objjz+Om2++OXbaaadiiiikdII4TOm8pIO02GKLxR133NHDS+vLt0jRbbfdFiTZMsjSA3w+6Fb9+++/x7333ltcTnoFyPTIeGiA08rWpxoB7p1TTjkl/H6gyqCCx23BBm5yb5dccsmiWNUmAWA+OeI6p98uNmCF2OyBLIMGnj7ZYYcdCmcpVV4Xl9Mk8NdHjx5d1vp5550Xl156aVx++eVl/auvvPLKePjhh9te871N2KCAx/FddtmlcDaBE2UBx+mnn16U2fvvv9/bGLt2v+vgf/nll7JWiTXHCccBp+iee+65Aedmf2aq6+CtU9xO4JTa+PHjQ7TYXL799tsgAS+//HI89thjwfwlEXvm7vHHH48PPvig+adtXXcVvKBoq622KpymsKzvMWPG9Bg883PffffFuHHjykSRDJNEWhAFmfE5PSFSq4ambSFvZefb7ajV7ygroA3Y+hb/P/PMM7VXcVvKi9JjzkwQ4GrXTN98881XahNhEliHAw88sNZPOxdd4zwvatttty0DlVTATZ5belcGi+O8rwUWWKB4YEB5T7qMueOSMnPZzpokSEt1WroGXsKDq4zrYgWiSsFl+eOPP+Lkk08uYp2SgbOAjx07tvgDEpQSlxKYEpR8BMlSnuFvv/2WXbVddw28Aa6xxholSuS6HnzwwTXvLCNIytCSIPb0w+233x4ZeECVAQ6JMWEDWboG/txzzy3rXQ6NKEttZwEolRuuW+MUoRTYYJaugZdDBxzXgZfjzyKPLmpM95ZOoO0Hu3QN/F577VVsO+3Mxp9//vkNbERe9pXDI+295557thWtNTpss9E18Pvss0+x2biPLrroosYQ7QNIKLoP/CGHHNJ4NpiNroLHdSDZ92uvvbaBS27QfYpO9Lbffvs1ng1mY8DB8+UlDYi1XKB1bcOj6pFJi9voYNrk05szRhIqV199dTz77LMt5+K7774rrm7Lh/242RF4gzzjjDPioIMOKqJ7+OGHl01MnAbcbg5PbbfddqvZZZxn+3Gfr14tfHveGyVpAkkFqRES2yQ59NBDS+6diZSVrU5qtZ++tDsCz/HAWW4opWZACGhkTcsHNmtyYACv6oEcrB0XW2HcWh4encAHWHXVVYvPwNWV5OD5SX5UrUj20de6I/C77rprAW/tpmsKMC1uMpizG2+8sebSGhjNv+WWW8aXX37ZY5zA22cDmj6w45obotxboHmBSBsD2i0dgX/wwQdLXG4XBBgeGmfFNdFtDmJykCxBbxsit956a1GEHB+gkYkAPHeItXNC9t9//5rnmN/oS90ReB+wI2KdIs6LDUK6oLeCs1JW6lZljz32KOIs2MFdnFenqKtzIkwKD1G2uZ3SMfj+fNROrzweu27SmsukSZOKS4zrCZxoZ3SXE2CtmxT33XP4QCDV3zIo4KWb77zzzth6663LoAU91SJosQy4uRQdAg5wCm7HHXcMiU1LKjnvWUoFSRBBPvLII9Vu/7bdEXgKi6mTlhKXS0qI3hDzZz16xtWlCA3SoG2DZ7HPTz9QmjhK3IFKYFzf3FV1XsC+Wyq7lAR90gEm78UXX8yu/7buCDzAmXFhl5k8jgvKDAxABgd4clNeLostKs+tXxsU3knu8gWeeuqpfLXUcnmWhd94L99PxdibIq118t+LjsBbaziFa8TTQHI94o5nJscgDc5zEyM5mQX46u+0TZT3gay6xX5j59i3vFMF73dSZv1Rfh2Bl6NztoZTwglB3NX059MxcTZngw02KCbwrrvuqiUlaH2xvUnCfSBSrAHk5fmNjC69QRrS+fGedzhBjsl9/vnn/YoOOwKPEwbFNttElIWhsQ1SW/RmX+61114L/nhvheY/55xzygTgOEppSfF2Daxn7uUkkSRMaKd0DL6dj7b6DY0vR2fZAJoAgQU0Rdx16oYZZ5yxKFPBVDtl0MFLPL7wwgu1PF0OnDZ3kGDmmWcuYAEm1jiunZNiYog+JdtJFndAwYu6iPk999xTaiZNG11yySUh6nMUDEDtVtvNPLxcy2kBgEWucT7Ff8MNNyzRXk5ef+sBAQ+EAAYowUweDKQMKSw1RWV9Mofy7uL5VvE68MSaprcEUswBT+4DTzrEEDZB2y0DAp4TAjhgQDJ9nBqkzf8W6XmmLQI0ARyW5vWaYTLtL/mpX5rc0RQTw5HJSeHVUbjtlhp4KWWBCTfx9ddfryUgpvUBOy+nnXZaCWOBSu4CgNtZeyaXb9Dbb799XHjhhT3AmwzncsQAosaff/65mC8Kkb6Q1OA9cnUtp77k8p3F4/nJGFXD6Bp4HYulDZ6N7o/D4AMO9uKOkFUGhntroNpcXFxlBjsR1WSCSelrufjii0tmiSQ6jp4TVgNPWRFJKShrrvmUcl8/9v/0Hn2UhxB5gMLpjBVq4J25zfUpE+N4yFAvlmQGVjBxyQVTSg28NZR5OIrqn8B5y8PZW3jEGixExv418BKNqZ3NUqsE41CTBLpIWAwXT5HY58mOGnhpZEqBObE+nJvJF4ca6BwvPcYZgomvwLxmnFEDz7wlcNreBNDWzuR6ln8kEKigvKduJs9fffXVBr3yyivRF8q+s85+89v5BwfX+f1sV69ZLsGVpGpGmaTZHkKWGvjvv/++HASwzSTvTuvnDzMX79oEUYz0A+vAGfGbpLT17DurwdYjoWczWYfIfe94n6lFfHekf9/hKPm2MWCOzREhNNIWWmtniM2LdN/YU5ELj7PUwLtpZjkhBpLeWIIzIIAMlAua7uZg1OnbyxAZW3VS0mPMScIE99QwGLcEiFMdnKUsPcB7QOQEIJREJg742NqUBr9aW8SlTnKNvNsNygAn6+ZvuJ9jwZAcC85zj5uPsrQEbwKckqL92XoRGEdBFpW2JBmCF+IlcEniurpPwdicRJtsskmjnffyvn6QPwD47wvKzQ9rVTuvZX4dcOIWGwdl7OyOk512jniWtLqaadOWH5D2qp4FSq6rewVffembb76JL774ovjFvCMWQAxgiaRCUktJsaG5ieG9KjXfF78j+fwqcX9R3tP2XQcXpapyLPx05DrvV9t/5wL3CXx1Iv5J7eka/H8AebZ1sj9axdUAAAAASUVORK5CYII=;" vertex="1" parent="1">
                    <mxGeometry x="-4212" y="19673" width="572.71" height="600" as="geometry"/>
                </mxCell>
                <mxCell id="45" value="" style="shape=image;verticalLabelPosition=bottom;labelBackgroundColor=default;verticalAlign=top;aspect=fixed;imageAspect=0;image=data:image/png,iVBORw0KGgoAAAANSUhEUgAAAHQAAACBCAYAAAARxZ6NAAAfCklEQVR4Ae2dB3RVVdbHo4IwTvKKdBQFFAQpglgwKkVBaSLFgqMoyhidT+wNBxUEpAsBQRAEBBUFGZAWipBQUyEBAqT3QHqHvJdI8v/WPuW9825eEhISwOTetfac+249Z//Of+99bmSNC/StTnnApU6NppLBXDyfhLQ97rDuNjMr3GWGzXaaccFLYzvMuCDs/A4zmG034/w2YWL/3MZbcCF5RyVvvzKn6xXQgrB5sOwyI2WjCckbhK03IXm9CUlkv2nsVxMSVVtnQsI6ExKp/cVuuX+YcW7X41eGWCVvqVdAs/xeQ/4OM4cpIcpWwlQBKvsEkpkCkqDG/2xC2gYzkjd1qcTVV+Z0vQOat81sV6RWlQpApkypxgpg2oBu7n5liFXylvoF1Hc8creZKw6tlUBM+NkEMgLJ7CcTUtebkbRJB1rJXKv501kEdCsHmvib8/zoNLRKeLL9icOM+8kEspTfzEj6X7ea73A1nlivFJopgDoUOhRmVVU6yZE2NRJQAZG1a02IW2tCqg60GlOvBm4hoDlbzPbKtTyQTsIqAZQwCaLN1piQ8qsZiRv1kFsDiKr2CAb0DzOvVjVLD1mx2tQoAJYHMW6NCbHCzq0zI/F3PeRWjUYNXJ3hOx7ZEqgmtDoUOiK0OsI0Im6tEXFruMWuMYLZj0YwoBt1oDWAqGqPyDgyHtmbzfaPArLIkW15YXWtXY1MlT+aECss5kcTzv5iRsLvesitGo0auDrj8HhkbzLblxyKEpka1dxI+0pYdQYyZrUJZDrQGoBTnUcQ0CwVaCV5UuZIqUZqSZEcpFG0Jpz92Yz4DbpCq8Pksu5JOzgeGb+bEUshVLGYtSbEMDXyvEjQVIgMpFCjVCVrV5kQvcqEZFL6Bj2HXhac6tycemA80tabEf2jyW6rxT5rjYj+USivHDXGCIgEMnqlEdErTUj+yYz49TrQ6jC5rHvO+fwbZ9cZEbHS4GCRK42IWmVC1CojolYbEU1wbYoUgFeZYIdJIDnM6B840LjfdKCXBYfdXPoXUGIBSq1AicbomLDSEivIkr1fQ8IvN+PMD2ZuK80IW0n7Jpz53hURKwwguJGkPgnUpkgjolcJiCtJnSYQzKgfTEhaa4YO9DJwlhQlozj1exQnfAZr3EewkMWSfSjsA1hiuBWK1hL9PnKODUeO3yPIPEz2sDB3ZBxyR7JXVwY5bLkBEQSKgDGYGogrOUQCyWyFCUlrzIj9VVdotZCW/pULa8w7QNpzQMJoIH4UEDdS2AggluxpbjHDgZinuEUPQ1HYUFw4NQSFoUNw4dRgXAgdjAsnB+FC6CAUnhqMc3t6InSZAeHLOawyinQCM2qFCYk60GqxZDddzDsAJI6GNWw4Lpx+ChdOkQ3jFjoUF0KH4nzoEJw/STaY24lBOH/iSW7Hn0TB8Se4hQxEQcgAZuePD0RuUH+cXtUCp75zQ+QKuzJtalRUSSAjyZYbkUhV8TpdodWiWpy5CUgaZQcZOoxBtIMUEE8SRBXkEzjPQBJEO8iC4MeRH/w4CkIeR25gP5xecwtOLHZF+HIjD6nOIK4wMpAEkwGlfPuLDrR6QDM2AfEjhCq5Ii+QIpkqB+P8CQIqYB6XqnyCQzwuYAZzVTKYxx5DfvBjKAh+DDmBfRG66haELHLDme8VoCtMsClSAzPieyMSdKDVYsluKs74HxD3dAWhVaiynNBaQDBJkaRMgnmsP7OC4P7ICeiDkytbI3ihK84sM5YLkVRJIKUl0JLmZ12h1aLKgQ53kiM5SFt+lGqU4VVAJCWqIPOP9gNZwbF+yPF/FCd+aI2jnm44vdTI8qgMq6xVIDKYy4yIWGYEA6qH3GrxRHHGRiD2KVHwOIZWBjOECp6yobXgGA+rDOZRrkoGM6gv8o/2RcHRvsj2fwTHV7RG0AJXDlTkSK0iCaK08GVGxK/UFVo9mgCK0zcCMcPsBU+Z0CoKnnJCaz7BFKokkPlBfZAX1Af5R/sg2+9hhCxvhaD5rjj1HS94ZFhVFUkQmS01InwpBxqth9zqMS1O+x2IGYrz5YLk+dEeWkWedIBoB5kX+CjI8oMeRbavOwMa+I0rTi2x50ipRmoJoIN9Z0TcDyZE/6Tn0GoRLU7bAEQPUdaRjksQO0gKq5QfSZE8rOYH9WVqJEVykI8gL/AR5AU8jPygR5B95CGEfN8KBDRUAhXh1QGigBr2nRFkDOhaHWj1gUYNLrOWZJUrq1rtlasttFKeZMbDq1RlXgDBFEADOdDgZa0QOM8VoYuVPKlRpQTJ2iVGxK0wIVoHWi2eKCKFRg3iX3hY5Sqr1ksLrVyRHCIpM9ffnVlegDuyDj+I4GUtETDXFSe/dQytWohhS4wgO7PEiFj6VLhGV2i1iBalrgcin3RcR6pVKyt0tKGV8qRdjXn+dpC5fg+BLC/gIWQdfgDBSwXQRUaEi5Bqg6lAJJBnFnMjoJE/6kAvA+gTTteSlCtZfmQ5UubJR21hlRSZJxTJlMlg9kauX2/k+fdG1qH7cWxpS/iTQhfx/CjDqqpICVK2sd/rQKsFk25iCo0YyL/wsMrVnh/ZEkRUrQ6KdADJFUkQmfk+iFzfB5Hn9yCyDt6HY9+1gP8cV5xYyEOqDaRQo4R45lsjyE5/a0SMDrTaPFGUsh4I78+WGfkURgMfZlUqUx8rcOyVK4VWyo02NfoTzN7I9SWYHGTukQfAzPcBZB7shWNLWsB/th2oDaAEKiASyNOLBNBlJkSu1kMuUHoRpcVpKC1OLcdSUFqsWhqs59agNHI4CkKGoiBkCLfgwSgIHoy8wL7I86d8SKGVh1cWYpXQymD6PogcsiMPIOfI/cxyfe9H5gEFqKc9RzKoiiJtMAnoIiNilpoQUd+BlhSdxcWcdShJX4iis98oNg9FZ8nmoujsHGGzUXR2NorPzkZR8jQUJU6CNf6/zIriP4OV/suFhImwxr6PguPDufqYGoUimSqFIn0Joh1kzuH7QJZ75D5k7u+Jo0uaw2+WK44vEEBVRUpVCpCnFhpBFk1AV9VnhZYWojh9FWBZCKTPBtJnCZsJpM0Q9jWQRjZd2DQgbSounvsK1sTJKEoi+5Jb4hcoIkuaDEvcx8gLegy5vg845MgcLcgjHGTO4V4gyz3SC5n7e+Do4hbwm+mK4/N5ONWqkRQpQbLW04jo70wIr9dAL6aj+NxslKbORFHydGHTUJQ8FUVJZF8Jm8LBEcDEL4VxeNbEz8FtEqwJ/7Vb4iQUnBjJFEfFDjdFkRRihSoZzEP3Iofs8L3I8OmBoMXN4TvTFSESqFAjA+kE5ikCuqTeA81AccpclKbNQFHSNAFRgiSIU7gKNRCLJMQEFaIItxRymX2GgpOjGSBnoZVD7IXsQ/dyO9gT2Qd7IudQT2R4d0fQtwpQTWiViiSIodIWGBFFQFfW55B7MQPF5+agNGW6osQpsFIYtalRhNFyISog4z+FNeETWOM/gTXhU6bQ7EM9ecHjoMayILMP9kD2gR7IOdgDGd7dELSoOXxncIVqQyuBtMFcYESosKjFJoT/UK+BUsidhdIUUicPqywvahRpD6laRUqYn8JKMAmktIRPUHBiBBhQB5hCkaRMoUoO8x5kH7gHOQfvQca+bghc1AxHZrgi+BslV6ogSZkKzND5RkR9a0JY/QZKCp2J0pSpZXJj+WFVQpyogfgxrPFkHwn7GAXHn0b2wXuQc6gXy488vPLQyiAyVXKQ2Qe6I3t/d1Cbvq8LAhc2w5Gv3ThQFaQKcYERJ+fbLZKArqjvCj07A6UpU3h1KsJqUZnceIkQ4z6ENe4DbvEfIj/kKQaoMpBZ+7sja383Ztn7uyF97912oPNEnlRBKhAZ0G+MOPmNEZGLTDijA52OkhTKmVStqiGVKlYCKWGqYVWrRgKpwIx7H9b4D5AfMgxZpDwnoZXCKwcpYPp0RZZPV2Tv78qABng2w+HpbjhGQBWYqiIJItkJYREEdHm9V+g0lJz7wr7cKBci5UcVpBOIce/Bqlh+8FBk7e8KNUdSSFUVSRC5dUGWdxdk+3RB+p+dEODZlAOdK4CqqlRBzjPihLCIhTpQtuYsOfu5osTKcqNGiTaA78Ia9w6sscLi3kV+8GBk+XRhxU5lIDO97wZZlvfdSNvTCQELmuLQNDccnSNypIBoU6QCkgGda0S4pwmnv6/XCk1DUfJXKDlL4ZXWj2pYlYoURQ4LqRLm+7BSWFVhxr4LC4P5NqyxbzO4+ccGc9WxHNkdWT7dhBq7IsubjKsyc9/dyNzXmVmWd2ek7bnLDnS2HagMrVKREuSJuUYc14ECuEhAJ6Pk7Gf25YZDWCWYFUCMe9euSIIYMwHW2AmwxL4FS+wE5B17EpnenVnYdQitPgSSK5LOZ+7rZLOsfXchbXdH+M9vikNT3XB0tsiRThRJEG02x4jwBfVeoakoSv4CJcmkTLncqCg3EkCpxHdgiX2bgSN4VoIYQ/Z/sJLFvoX8o08wUBR2mXl3sYVVqUgGc+9dyLRZR6TtuhP+85vg0FduCJplsOVIUqQNIINpwPE5BoSQzTYgjD4TLqvXIVcCpfD6kahUnSmSg7TlRwZSwiQ1vsUgEkxLzH9gJYv9P+QdHchA8dBKYdUeWjP3dgK3u5D5J1lHZPzZEZl7OyB1553w/0YBOtcIGVZtQOcYcXyOESGz7RY234TTS+s70KRJKEn6WKwfnedGDlLkRltIVdQoIFpi3gS3N1ibFzQAmXs7MlU6KJJCrKJIApnxZwdmmX/eidSddzCgB6e4IWimwa5KAVELkkGdZcSZb0w4pQP9L0qSSJVyyUHVqiY3spAqcqMMqU4hesASLSzmDeQFPs4hyRzJVCnCqwIxY8+dkJa55w6kerWH37wmODDZDYEEVKpRo8iQWUaQBTMz4Ax9Jvyu3it0IkqS6OvOeyw/2sMq5UUKqzykUn5kuZGF1TdZWLWpMfoNAfJ1WKKFxXggL7C/HaiiSB5euSIlyIw9dyBj9x3I3NMeqTvawW/uzRzoDA40xAlMDlIAnWnEmXkmHWhR4qcoSXxfVKuOYZUXOqLIcVAkhVQJkRQpQf4blmiy8azNC+gHAsXDa0eRJ52DTN/dHmQZu9shZUdbB6BqnrQr0ojgmY52eq4JoUvqs0L/SkFRwicoSaQQSyFVhlWpRl7g2JRYEcSo8bBEvSbsVViiX0NuQF+uOpEfM/Z0sIVWUmMGA9geGbvaIV1Yxq62SNl+O/zm3IwDX7oh4GuqYNXQ6gjx2Ewjjs0gM+A0fVXSgX6EkkRSJkGUIEmVFFapyFHUGFOOGhnMV2GJIhvHLfpV5Ab04dAIqC1P8tBKMJkqbTDbIn1nW2Tsuh0p226DrwrUlic1MBlICdSI03NMCF1c7xX6IS4mTBD58VIVSWrUKFKCjHoFFmbjkOv/KNJ3tRUw7SAZTA3I9J23gyxj5204t60NfGffjP1fuMF/uoEXPSK8qorkyjTi2NdGHP3aiFNzTDhZ74HGf4CLCbQE0aiRVatqbqS8qIWoKDLyFVgiXxY2Fpaol5Hr9zBXnQiv6bva20IrqVFCTPe6HeletyHN6zake7XBua23wneWGT6fu8F/msGWKymscuMQJUiCeXS6Eadmm3Dy23qt0HMoin8PFxP+A0uZSlUpcNTcyMKqABk5TgAkmGNhiXzJblFjkevnjjRSXhmQAiYDSBBvQ9qONkjzaoN0r1txbustDkBVJdI+AyggEkhpobNMOLmoDgENCQnBmDFj4OLiUq41btwY48aNQ1hYGPAXAX0XFxPedFh2bFg6EH0ebMVs+exH7YWOLUcSQKlIAqnCfBGWiBcZ2Bzfh7jqWHjlOZJUmbTlNmye1VxjzbB5FllTbPy6CY7MNMNnkhv8ppIqnStSgqQ2aJoRobOMWPl2O0yePBlvvvkm+vXrh4kTJ2LmzJl8vNX/hwJVvrNG/l8hevTogU6dOrEB0aC0RiAJNkE1mUwIOfoniuLewcV4WoLw5UbAthFlJsOWlQN5XrRBpNDqBGLEv2CJ+BcKI16AJfJfyPHtzVWnhFcCafzn9WXeoZ2EN7tdjzVvusKfgH4t8qSiRgmRQAZNM2DRyzfBrfF1Ds8lf6jP7d279xUDe9lA4+LiWOdXr15d7mzy8fGxXdO2bVuYTAYEeo3BxfjXbUuOj97ozq7ZsvIJHPh9KNufMK6zPTcykAImKVFAtES8gMKIMTazRL6AnCMPIm3HrWA5cidX5WO9GqNXpxsR+nMrpG2/BWk7bmFt6rbWSN3eGmnbW8F/eTO0Ml+PQd0bYsXr/7SFVC1EAun9XzcM69mQ9bP7bTdg6ou3gCKVutG4FyxYgJYtW7LJTIqt7e2KAqUB0gRoe3sbmAyNcGzHSFtYHTuqA3NO+P7RCPcZzfbHjrqjAkUSSAnzeRRGPA9L+POwRIxh/9SBoO1b3BLNzTewZ5Fixgz4J4dJQAkiwdzWilnatpY4u7kFerZvYLu+tfl67J5oYGGVIErb9YkbmrhehxsbuOCtAY1wcoYRh2Z2ZvAo1MqQS2OlLScnh6Ub6gOds1gstcb1igOlkcRF++P2W91gMtyIgK3DWVgdO+pODtRnFMJ9RipARW5kinwBUpEEzkIQI55HYfhzwp5FYcRzyDl8P1PdiD43oU2LBixHEtgxA25iICVE1m5tidStLZG2rQXObmqOnu0a4P72DTD/JR5K3xrYiIOcakCQsIc6NGBAN7ztisNfGPDSw43QqKFj2KVIRBOYNj8/P9Zu3ryZjYtSUm1tVwRoSkoKCzlLly7l4/jrLCIOvYi2t7qie+ebWVglNdIMDvcZwYz2x45qL0LrCwjZOQSTJnTFpAldcNxrMCzhzwl7FoXhzyj2LPu3KgTLvVsjZqTWNs1vwPMDbuKKJIjbOMjULS2QurUF0rY2twF9sntD+E4xoJXperzevxEDGTjVALIvR/yD9XP6M//A4c8N6HorjwD9uxnKhFxS5ogRI9jYaZ82KppobBJyTYO9IkCp0zQwGogzO75rOByAevNrOVAOs3Eje+g0GhoibN8QFIZLmKNRGC7tGfbf4pLqbEC3teZAH/8HUyOdI4gM5pbmSN3SHGlbmiF5UzOm0Ce7NYTvZDtQBvMrA3Z+7MYKIMqdgVMMGNaD59AFL96EkAVdHdhQNU+FIo33vffeA01qyrEUbuk4WW1sVwwodX7nzp28Av7iA3z+bi+88gxX5e6fBjA10uDDvYczo/2xo9qxkDrhlY7MMYum3IupH3Rj+1M/6GqHGDYKlrBRKAwbyY7RPz4iYIN7N0avuxoyVTKFMqCOIFP+aAay1C1Nkfy/JnagXxpYWCWFBn5lYEb5kvrl9ZEbPF+6ie2P6X0jTkw3Inj+3TY+FGqpmqdrqSAidVKYpSqfwP7666/snAzJthtrYOeKApX9LS1ORFHMa9i37gk2sN0/Pa4AfQrh3sPY8bEj27LcSC05J2zfYOxa04ftT3qrMwoFREv4SFjCOVBL+Gj23+OmbGmOSa+4sWt3zG1iV+iW5kjZwiGm/NEUzDY3ReofTZC88WYb0ElP20MrqTFgCg+vFIYDJhswsGtDplb/yQYGNGRhTzY8SivUV2kyzcjVAFW9cp+UW9NbrQOlGSmrPdn50r+yURT3Nnw2D2ID9/51AMY9057txx4cjtiDT7H9cc+0Q0nsc3jlGQ405sAQeK/ry859+U5nlMSMLmOlsc/igl9PZO1ohpQtLdChDa9aG914HYY+1AjZO5qzc1nbmyFre1NkbW+CrG1NkL29CdL/MKNjqxvgKtaV97VrgJDpBoTQZ8BpBrQ2XY/+nRsgeCpXb/9ODRD8lQERs02I/v010NJNgqSW1qPqRutRSj20kYIHDRqknq6R/VoHSl+QqFTXbiX5/vhz/SjmgD3rhmLsaL5sidj/HCL2P8+O0zFL9DiMHc0r4Ij9o7HnF67qz9+5B9boV5ilBr+AtZ59sGFpf+SeGYs8/37I8OqAjF2dkLz1Lnz+ajN0aHMjs3Svjkinc8zuRLrXnUjfcQcyvO5Aytb2uLHBdejSphEmjmyC4Dlt7TabT6o3BpgQLPZf7WfEiTltEbZyACwZEQyQClS7LiVfSMjkE2d+0fqpqr9rHWhFHffe+wcD57N3A8a9/Czbj4v2Axk5ho7hr0TlnC989q5n5yZ/8T47Fxfti5Ytm7FjTBX3dEFh9mmUFpxBaUEYSs+HsdZr03J2zbrV88Q5Ou9oM6a8z64JObwd1vQzsGYoln4GJqMb3n7jZeQmhaBxo0b4+J3XYU0/jYuWXOZ3CqcSKK1HtRspklRKG4H92wOlkp0+A8qNigJyALXy8yCFZ5lj5LXqOXmPXMtRHqJnkANlJV3eVytyKIU6Ks60G91DRQv1sbyN1pYSCMFwFjKpumXfqzUPoeqW3k3Pp33qMym2prcrqlCtWiWcywFKzyTn0CafJ2FrnUXVJgGh6+k+uo5MfnulCVHRVxyaWASdNqlGbVjVvlP+lpUtXU9rUOqDLJjkNTXR1gpQ6qgMOSpEdZ86LwFcKaDSYdQ/OREIECmNHF7ZRsomEPTFh8DTkqS8yaN9Fk0WWRDJqEIFY01vtQKUZjI5jDYVorpP564WUOlE6o8M6/JYZS3BJ5CyepdfgCq7j9IIXSvHLCd8ZfdV9Xy9AkrOlGGWWsqJFG7VY87yn+pUAkm5sDr5j1RN76SvRBWFdvV9Vd2vFaCUX2RxQc5S99XFtJyt1KqFT1WKIlLZpeRQ+WGc1CUjhbal8EtW2XdWud6kPl+qQmmiUP6m519q3q0qTLr+soHSjK1ugpc5iRwo8wrty6JBTgRq6R10XN5DE4U2WdlSP2Th4ezvjhQqSY0VKYPgEHD53oocSu8gOHS9s6pZvbcq16r3VWf/soHSS2nmUSjRzvjKflPoIYeQk6VaKZzRMVl80PMlKDpO5+kcXU+bVIt6zpkC5Lsq6xM9/1LzqlQd9YfGT5OLJhpFA2rpXbK/VVEzG1g1/6dGgNLAqMOVOUt7nvIQqU5uBIdURM6nsK1u9JuOk9F16kYKoON0b3nVKqlI+35nv0nJap/U95S3T32jZxFY1UjBNMbKFFzec6tzvEaAVufFdfUeCv0UPSoK7bU5dh1obXr3KjxbB3oVnF6br9SB1qZ3r8KzdaBXwem1+UodaG169yo8Wwd6FZxem6/Ugdamd6/Cs3WgV8HptflKHWhtevcqPFsHehWcXpuv1IHWpnevwrMvA6gXPDQfo+WHaXd3D3h6RV2F4Vwrr4yCp7vjh3rpGxd3d3h4eqGsd6Q/PeB1GcOoGaDu7nCXpkL2uJyuXcaorvqtClDpF9YqkN09NVCvGaBOZlSU7JwL3D3LzsWr7u9a74AE6o4yw4/ysqnX0TfSZ078WYX+1oBCy+lAlCfcSa1lZmIVeve3vbQCoDQmLw/+d1OHCHatA0XNdPDvybQSoHKy/72AykE5U3AUvDw94O5QOLjD3cMT2loqytOdzWbH8CQwS8c4iwLynIPT6D7xbjXXU6FS9sU8wrD7o+Dlwfvh4uJsPNppJ8fuJORSD8SYHLtWMwKovZArFap1tnQ0c6g7PDw8mLHwLI+ptZS83nH0zIPSMc6cLM853uYFD9skku+WoDT5Xnmvl4dSzFwWUJpMYoI6dozisFg1XMqE0U4g++9aAyod6qgs2WmXsoqgmStzi4PT5D3agUoVcGdr/cMhqPfYr3fsEzlDnlMUJYFSdeqiHLf7roI9+Tx1Ish9J9GAPam8cVbwGienah5oVPnhSUJ20Xpf6Zi8RnU6h6NxqnC4hycvvtTrbbNdjQ5yspT3bu15CdSFJp/SwUvaVYCWu2xRJxs99JoBKmeepqWPC5oVi1MwWgdJRzqBoULj4MkpwnmVXF/5u4VD5XOc9UPb13J/S6CaSciut4ddxxXAtQRUnYUe/CuRhqUS1rQzU+sVjWPZae0x4TAhHQ7X7jztb3tI1Uw6tTCS+7UOlI+XTzBV/dcM0MoASWBy1lZ2vRYe3a+9l19jU6wIl5yvuFaCYa+X97vAXRRhshgr08rPclKhVY+3Sn/tk0x6QbZlU8vfFmj5g+S+Fx8kNI6UDmCHGUD1OcIZ/CSrFm2whQcrD7nS1aLVgWoc4uSnhFLVoog9SnEwg+OgQPr4Ir5KOajV3gn5bi1o+xWaPeV9mjOX8FNGBHXSOd5WB0IuDUiGFc2aT4zV+bJFOkKGUlpGOLlfqNaDfQBwFtbt7y7zEYG9gqpzpZCrNaDXfFHkzHkSgpNWOkp8RJA5Tf2woK2O5VOkylycrQvV52rCtbwf6jUu9GVKfNRQPjbY3i2vLe9Ztoc625EKpaih/CXK9h4qzjw0X8XkhKuiPzWvr/l1qOYFTn+KtaodIh+4878TKk8Q4dTZlyF74aRWjsq9cpf+2uHBVW77GyWDq/nsWFNAZfVsa2kiXZN/D5Ue0ttryQOXodBraRh6X6QHdKDSE3Wk1YHWEZByGDpQ6Yk60upA6whIOQwdqPREHWl1oHUEpByGDlR6oo60OtA6AlIOQwcqPVFHWh1oHQEph6EDlZ6oI60OtI6AlMPQgUpP1JFWB1pHQMph6EClJ+pIqwOtIyDlMHSg0hN1pP1/Qg4MM3wf4kQAAAAASUVORK5CYII=;" vertex="1" parent="1">
                    <mxGeometry x="-2228" y="17536" width="1494.21" height="1661.67" as="geometry"/>
                </mxCell>
                <mxCell id="52" value="&lt;span style=&quot;font-size: 200px;&quot;&gt;Snowflake DB&lt;/span&gt;" style="text;html=1;align=center;verticalAlign=middle;resizable=0;points=[];autosize=1;strokeColor=none;fillColor=none;fontSize=72;" vertex="1" parent="1">
                    <mxGeometry x="-20767" y="22707" width="1274" height="252" as="geometry"/>
                </mxCell>
                <mxCell id="59" value="&lt;font style=&quot;font-size: 200px;&quot;&gt;Azure Data Lake Gen 2&lt;/font&gt;" style="text;html=1;align=center;verticalAlign=middle;resizable=0;points=[];autosize=1;strokeColor=none;fillColor=none;fontSize=72;" vertex="1" parent="1">
                    <mxGeometry x="-20970" y="20260" width="2108" height="252" as="geometry"/>
                </mxCell>
                <mxCell id="60" value="&lt;font style=&quot;font-size: 200px;&quot;&gt;Relational SQL DB&lt;/font&gt;" style="text;html=1;align=center;verticalAlign=middle;resizable=0;points=[];autosize=1;strokeColor=none;fillColor=none;fontSize=72;" vertex="1" parent="1">
                    <mxGeometry x="-20948" y="18591" width="1689" height="252" as="geometry"/>
                </mxCell>
                <mxCell id="61" value="1.) Add Null data and Cleansing&amp;nbsp;&lt;br&gt;2.) Possiblity of Adding Purview&lt;br&gt;3.) Separate compute for PowerBI?&lt;br&gt;&lt;br&gt;4.) Purpose of Curated and Gold Layer&lt;br&gt;5.) Different workspace/capacity for PowerBI &amp;amp; Data Integration" style="text;html=1;align=center;verticalAlign=middle;resizable=0;points=[];autosize=1;strokeColor=none;fillColor=none;fontSize=200;" vertex="1" parent="1">
                    <mxGeometry x="-20423" y="30794" width="5628" height="1452" as="geometry"/>
                </mxCell>
                <mxCell id="65" style="edgeStyle=none;html=1;fontSize=200;shape=arrow;" edge="1" parent="1" source="63" target="4">
                    <mxGeometry relative="1" as="geometry"/>
                </mxCell>
                <mxCell id="101" style="edgeStyle=none;html=1;entryX=0;entryY=0.5;entryDx=0;entryDy=0;fontSize=11;rounded=0;strokeWidth=12;targetPerimeterSpacing=0;shape=arrow;" edge="1" parent="1" source="63" target="4">
                    <mxGeometry relative="1" as="geometry"/>
                </mxCell>
                <mxCell id="134" value="Batch" style="edgeLabel;html=1;align=center;verticalAlign=middle;resizable=0;points=[];fontSize=200;" vertex="1" connectable="0" parent="101">
                    <mxGeometry x="0.1585" y="10" relative="1" as="geometry">
                        <mxPoint x="3" as="offset"/>
                    </mxGeometry>
                </mxCell>
                <mxCell id="63" value="" style="image;aspect=fixed;html=1;points=[];align=center;fontSize=12;image=img/lib/azure2/databases/SQL_Database.svg;" vertex="1" parent="1">
                    <mxGeometry x="-20663" y="17380" width="837.75" height="1117" as="geometry"/>
                </mxCell>
                <mxCell id="64" style="edgeStyle=none;html=1;exitX=0.25;exitY=1;exitDx=0;exitDy=0;entryX=0.291;entryY=0.763;entryDx=0;entryDy=0;entryPerimeter=0;fontSize=200;shape=arrow;" edge="1" parent="1" source="4" target="4">
                    <mxGeometry relative="1" as="geometry"/>
                </mxCell>
                <mxCell id="81" value="" style="group" vertex="1" connectable="0" parent="1">
                    <mxGeometry x="-13440" y="15384" width="11129" height="2855" as="geometry"/>
                </mxCell>
                <mxCell id="99" value="" style="group;strokeWidth=10;fontSize=72;verticalAlign=middle;fillColor=default;strokeColor=default;rounded=1;" vertex="1" connectable="0" parent="81">
                    <mxGeometry x="240" y="6774" width="8639" height="1885" as="geometry"/>
                </mxCell>
                <mxCell id="74" value="" style="rounded=1;whiteSpace=wrap;html=1;fontSize=72;" vertex="1" parent="99">
                    <mxGeometry width="8639" height="1885" as="geometry"/>
                </mxCell>
                <mxCell id="139" value="&lt;font style=&quot;font-size: 150px;&quot;&gt;Compute&lt;br&gt;&lt;/font&gt;" style="rounded=1;whiteSpace=wrap;html=1;strokeColor=default;align=center;verticalAlign=middle;fontFamily=Helvetica;fontSize=150;fontColor=default;labelBackgroundColor=default;fillColor=default;" vertex="1" parent="99">
                    <mxGeometry x="3489" y="-208" width="1079.66" height="287" as="geometry"/>
                </mxCell>
                <mxCell id="152" value="Data Engineering" style="shape=image;verticalLabelPosition=bottom;labelBackgroundColor=default;verticalAlign=top;aspect=fixed;imageAspect=0;image=https://debruyn.dev/2023/all-microsoft-fabric-icons-for-diagramming-old-version/synapse_data_engineering_512_color.png;fontSize=200;" vertex="1" parent="99">
                    <mxGeometry x="3454.9956852213545" y="426.0022684733085" width="1018.01" height="1020" as="geometry"/>
                </mxCell>
                <mxCell id="119" value="" style="group" vertex="1" connectable="0" parent="81">
                    <mxGeometry x="-2728" y="322" width="1221.54" height="1418" as="geometry"/>
                </mxCell>
                <mxCell id="120" value="Data" style="shape=image;verticalLabelPosition=bottom;labelBackgroundColor=default;verticalAlign=top;aspect=fixed;imageAspect=0;image=https://debruyn.dev/2023/all-microsoft-fabric-icons-for-diagramming-old-version/Dataflow.png;" vertex="1" parent="119">
                    <mxGeometry x="120.93366933669328" width="1046.3290518411707" height="1079.0207689381675" as="geometry"/>
                </mxCell>
                <mxCell id="121" value="Data Flow Gen 2" style="text;html=1;align=center;verticalAlign=middle;resizable=0;points=[];autosize=1;strokeColor=none;fillColor=none;fontSize=200;" vertex="1" parent="119">
                    <mxGeometry y="1209.1537112799533" width="1519" height="252" as="geometry"/>
                </mxCell>
                <mxCell id="123" value="" style="group" vertex="1" connectable="0" parent="81">
                    <mxGeometry x="4886" y="1051" width="1208.54" height="1511" as="geometry"/>
                </mxCell>
                <mxCell id="124" value="Data" style="shape=image;verticalLabelPosition=bottom;labelBackgroundColor=default;verticalAlign=top;aspect=fixed;imageAspect=0;image=https://debruyn.dev/2023/all-microsoft-fabric-icons-for-diagramming-old-version/Dataflow.png;" vertex="1" parent="123">
                    <mxGeometry x="119.6466564665646" width="1088.8933435334345" height="1122.9149479923362" as="geometry"/>
                </mxCell>
                <mxCell id="125" value="Data Flow Gen 2" style="text;html=1;align=center;verticalAlign=middle;resizable=0;points=[];autosize=1;strokeColor=none;fillColor=none;fontSize=200;" vertex="1" parent="123">
                    <mxGeometry y="1288.4564582115722" width="1519" height="252" as="geometry"/>
                </mxCell>
                <mxCell id="138" value="&lt;font style=&quot;font-size: 200px;&quot;&gt;Storage&lt;/font&gt;" style="rounded=1;whiteSpace=wrap;html=1;strokeColor=default;align=center;verticalAlign=middle;fontFamily=Helvetica;fontSize=200;fontColor=default;labelBackgroundColor=default;fillColor=default;" vertex="1" parent="81">
                    <mxGeometry x="4194" y="641" width="1079.66" height="287" as="geometry"/>
                </mxCell>
                <mxCell id="104" value="" style="shape=image;verticalLabelPosition=bottom;labelBackgroundColor=default;verticalAlign=top;aspect=fixed;imageAspect=0;image=data:image/png,iVBORw0KGgoAAAANSUhEUgAAAScAAABQCAIAAADUaCTbAAAgAElEQVR4Ae1dd3gU1drnj/td6QqiICIlAgIKKiLIIhfbFZEuiGIDFBYhjfReNrvJZpNssrvpvUEgdClBeui9SJEkm0YLO9s3hQhR8j1n6pnZmWwSWUiuk2eeZM4573nL731/O3PO7G66NPM/PAI8Ak8WgS5P1lyrrDU1NWnrjeq6u+dNpcWGCzu0xTt0h0rM5a2azAvxCHR4BJ4a6x49etT06M/Gv5rqmv64Wa+/YLl10FiySXchteZInGZvLLIrBtkuu1co06yNtxRmPNiSUbOu5n5Nh8eTd5BHwDYCT4h1D5oAu3QPGu48qL1eqzlirN6qu5Guuxhx97hPzSFP7UEPZK+npshXtzvItDusriiidqfMtDXauClWV6BA8hO0udn315fUl9oOiJfgEejwCNiFdfcfPjA0NtxprCttMJ63aA6ab23Ul6Zor4hqTrncKXYyHnc2HXc2HXMxHXU1HXE1FbsZD3kY9vno9/jpdgVpfwlBtoqRTVJkgwwpkGvyFZrcFGNe6p2s6vpbHR5P3kEeAdsIPAbW1f3RiDTWV9+3XK83nKlFDlrubjdV5+rLVNprYs3FiAelkqaywMZrvvWX3M1nnQ0nHHVHHLXFTtrDTtqDTsgBZ2S/K/KrB7LbG9npj/wShGwVIVvCkUIZUhCNrI3T5Ko02VkNBVs12yyNFtsB8RI8Ah0egXay7l597Smzbrf57hbT7U2m2xuM1fnGqjSDOvsvJLtZn/JXjephVUxDmcRyPcRwKUB/3lt3xl130kV7bDVSvBo57IgcckQOOiEHnZH9LsheN2SPF7LLF9kRiGwPQbaEIZsikA1RGnChUyI5CZqsvD8KinXFjx496vB48g7yCNhGoM2s095v2K6rUehvSXWVigc1ac2G7Gb92ibt2gearIZbKZaKeHNprKkkyngtwnglzHA5WH/BX3/OS3faXXfCBWGwbr8zsm8NstcDKfLBL3TbRMhmCbIxElkfo1kbp8lTabJTDDnpmsxr5qu2o+EleAQ6AwJtY91VsylGc0tkuSdt0Mhqb8stlSpzZYqlKstSnV1bnWapTDKXq0ylsaYbGOtEhstB+gt++rNeutNu2hPOyFHiQnfICVzr9rsg+9yQXz2R3cSFbmsYsgm7vQQrOiQ3QZOVXZu/rmYdUq/pDHjyPvII2EagDaz73WIRIzXBDYZg/c0wfaXUWCE3V8SbK9NQ1mXVVqWZKxLNaqWpRG76XWa8Gm78LdRwKVB/3k931lN3ao32uBNyhGAdWNE5gRUduNB5I7vQFd22UGSLBNkoRTZEI+ti0dvLRE1m3v38XcgvD5se2o6Gl+AR6AwItJZ1SGNjxK2bAXVGP6QqWFsh1pdHGstjzRUJ5sp0S1VObXWmpTLVXJ5oVitMJTGm36XGqxLj5VD9xUD9OR/dGU/dyTXaY05IsSO1qDuA3l7+6oUU+SI7A5FtIcjWMGQzeqEDt5dKJDdek5WqzczUZ5zSH+sMYPI+8gi0CoFWsa7pr7+2abXeJoO3ptpfWxmqrwg3lkeZyhWmiiRLZQbKugxLRbJZHW8ujTPdiDZekxqviPFF3Vkf3Sl33QlX7VFH5PBqfB8F27rc645e6PzA1iW+opMi68GFDgErukQkM9OUnVOTUWnh35jSqnTyQp0CgVaxTtf4h9/Nai/dPW9NVYC2ItRQHmFUx5jKVSZsUVeVU1uVbqlItqjjTaVxpt/RRd1vYYZLwfrz/roz3rpT7trjLtoj6IUObF06IQegFd1OdOuSWtHFaNYqNLkJmuxkJDO3NqdQs7a+sb5ToMk7ySPQGgRaxbrTBqNrzW1P5JYPUhmoKxcZ1FKjWm4qjzdXplqqsmurswHrypPMZSpTSazpOrqouxymvxgEFnWnvXQn3bTHXLTFjgi2iUJe6MADAz/wwIBa0UUh6+QIeGCQqMlKRTKzDen7kF2tiYSX4RHoLAi0inV5NXfdkDuemipfpCJIrw4zlkUa1bGm8gR0KyWntjrLUplmKU80l6FbKSjrDJdFhgtB+nMo606s0R51wll3AHsyvgZsXYIHBgHIL8FgRQe2LsEDA/BkPC9ek52syczQZWZpUq7oL3YWNHk/eQRag4Bt1jU+bBLduelhqPFCKn215cF6tdhYFmVSK0zlifiirirLUplqUSeaS5WmG3LjtUjjFYnhkshwIVB/1ld3ylOHse4w+mQc27rc5w6ejOMPDEKRLWJ06zIKKYhFwFvAEjRZKUhGtjEztyZV14C0JhJehkegsyBgm3XqWovHnWoPwx1vpNxfVxZqLAs3lsWY1CpzebKlMgtspVRlWCpSzGXxppI40+/RxqtS429iw8UQw7kA3Rkf3UkP7TFXbbET2EcBlHMmntGhT8a3B4O3gFFblwoEvAUsSZORpknPNaVvvVvQ9Bf/zKCzlBPvZ6sQsM263Tqt851KD+1NH606QF8qMpZJjWVykzreXJ5qqcyurcoGV7zyZLCouxFnuh5lvBJhvBxmuBCsP+evO+2tO+EOFnWHsU0U7C1g6IWOWtFh73VGV3RrVbq8JH1uuiE715xVUJd5Wne0VXHwQjwCnQcB26xT3r3tZqpxRyp8dGWBhlJ0UVcWa1InmMvTCNalga2U0njTDXQr5Uo4WNSdD9afxRZ17tqjztpD2GNxZ2Q/vKIL0W+XGLdHWrbH1m1NuL8lqa4wUZebVJOZcS+zwJC3U7PF2KjvPGDynvIItAoBG6zTNtwPqan2qL3ngah9daVBhlKxsUxmKoszqRPN5emWyhxwratIs6iTzCVK8+9y4zWZ8bdwsKg7H6Q/46c75aU77qY94gx2Lw84a/ev0R/wMu73N+0NseyR1O0J02+T1GyK1WxN0WzP1+3erP11r7b4rOF8iaWkpu7ug6YHrQrCXkJqhaAL+BEIi+xl4snpVRcJBVg4aEgK9ZMzzbBEwNqlS5e/CSyhqbMlyAbrTpsMrrdK3Y23PLVlfvqSEENJuLEs2lSmNKmTzeWZlsrc2spMS0WqpSzRXKI0/S43Xo00XpYYLoYazgXpz/gbT/sYT3qZT7hbjrnXHnU1HHS8uVN4Y+PS8znfHk3+bq+y8Oax8+Yydd1tpF5/v/E+Iz1/q0lkBOUN+MWeYW4xeETwFIv0b6GATy4SUoRDAYECUhcpFEIB1MFuEIaDxBQ/sTmZphLSxJ4TmjR3A9LTpW0ecOt8MiM2WLdeV+NqvuOmK/fSlfjrS0TGUmpRZ67IrgOsy6otT7Wok2pLVbU34mqvR9dejay9El53Och41rX6wNIr2xYez5uxO3nahpiJGWFvKf3HSN0dAlYP8hR+GuZnMBjsFSecE6w42FLcghQ81LmSyoS0SMikCVGl1IjNCGE4mOpsTqZ5BGliSwlNtqUGpIeIpyXxDjTWEuvqHz6MvXfToxFx05Z660sCDSViU5nMUq6orUyuq8qsr85vuJlXV5VRW55iKVMaroVWnXS6uOu7g+tmbkl6PzPyLWXQaJm3g9jtlQCnAZ4rn3f5sa/zsn5uywd4CF/xXjk8zDV0e0HTn3/aCww4J3iVWOe4ZSG1ArtEdLYbGAakcJDCItqdZadmXXNzZ01QS6wrq6v1vV3mZrnlYSjzt6hDLGViQ0mE7ncZcj2m5kpE+Rnfc3uX/1owpyBhcrx4pNhjaJDzK/6rB/iuesFrRV/3n/q4/dTPU/ii7+oBAU4DQ1xfEXsMlngOi/AcEek5JtrzTbnXtsunGfXxOJtUrQnI9QyTdoQMJcF1I/o4PXvSuogowQqVcafcPtYxtbQxIMgfZkLaqKmzirfEusNmvZPhppu5as3dK85lp1ae3fPtnoK5BUkfJknfDvcZGeA81Ofnlz2FL7r/1GfNst6uS5/z+Ol5b+EL/qv6Bzm9JFrzsth9UITn4EifIVF+Q2MDXlUEvaYKHhMf+GZi4MTM0Dl5smv3btoRNiq3QiF5h0XPMikCSUDLP6okoU7cY3URWAtRd1oCgQLbcSF1ovwFWxioEGTYeqpQQb8CETboGyBdBAIB41JlUxUUAuUryr4ifKeI1s3CSzJDUGDcrAMOCeHXMIHAOjhIE4AFjpIhTZe0AhOKDsK3GajkyA4ZzdM94WRd059/5RvvudbXfHuyaE5h2gdx4nfDvN8O9Rwb5DYq0GW4v+NQn58Hea8c6PPzAN+VL/j+/KL/qgFBTi+FugwUu70c7vGK1HtIlO8Quf8wRdAwVfDwhNDRyaJxqaHjM0InZoZ+sFnmtTev4Y9GOwZPZUygUJC0gwuGlBAWseaPtRPklLVgcc3QIAuXycJhFrvVZQjSA8lC7rdKFRQCpAUYswvruM3B97VQaEIFC5YUg2BJ6qWTfA2EzLHOgUKGgLNjzbVWNSfr9E0PA0suzdq5brLUf0qEvyAyYJLU/x2JzziR5+gQt5HBLg5BLkODnAcHuwwMdh4Q7DRA5Ar4FuExSOY9ONp3SGzAMGWwQ3zoq8lhI1Ilr2dI3sqSTMgRC/LF0wok07dK0y7sba2P7ZOjMiZQqKn8UPCTAsKiZmqcTGkzeyc5C0opemrNOlgCrQrICjxGnrOXDnF9U6uLhELiDrGVqrjE7MY69GJFUExNvdpRoXG9apEoQNvNHGATyqDo8C6OCVavae0rqcc2i5N1V0yGzzZkTAj3mRIVOC02dEp08CRZwDsRvuPEXmNE7q+FuQ8XuTmI3YaI3V4Wu70kcRso9Rwk83klxm+IInCYKnhYosghRTw8LXxUlvSNnMjx+dJJ66RT10d8tDH88x2yhdtlR6uuPLYgWBVRCQB8oBJE0I4cBwmjhm2wDhIEj/HI+ipS4HeJpFq0iggJtZpRbMQAen9FFhzhG7s/VJg0IzZU0QyTBnBdVDjMEcoYfkazSXqMR2klbTWJYArzXkFA4Ea7+LKSiAgUgIn+UN7jWYM62LODT3zafzhZV3Dp7ORE6aSogKmxodMUoiny4EnRAeMj/cZGeL8e4T0qwntEhPerkd5DZd6DZd6DorxfkfsNjgscmhDikBw2PE0yIkM6Mkc2Oi9qXEH0hA3Rgo1R07ZEfbotClDuUJzr4RSN2W7PDDBMqSpBC4rRpOoaTTCULqo8WDpZuhgZpOwwN2Y457IMwFq6MBY7zRwvEsARFlVPnHXqIvAAEF3ewQtf4irN7Q8UNP4aAPVAr4Yk4sxomW1SsKOdsLOu/o8/vLZvmKySCGJD/qMQTVOKBLEhE6MDx8v835T5vRHlNyba/7Vo/xFyf4fYgCFxAYOVgUMTQxySRa+mS0ZkRY7MjRq1Vv7G+ri3C2MnbYmdui324x3yGbvlc/fIv9wn/+GESn5xk92BoDKGpZDeJhOEkYxswlSx7qR0sBUBGhKnCOcAvE4krziQNHFdofZSoEHqNYJpnVTFqh+HnwqREufIDGSU8Ij4SzrRggykH5IiZ6JGrbzhlMR8pOTRdNiQ5ojraXSzs+6uyTgjRS6ID5+iEE1Thf1HGSaIC5kYEzReHvRmbNDY2KDXFUGjFMEjVMGvxocMSwgZmhTqkCYZnhUxMlc2ap18zHrF2E2qd7YoJ29XTNup+G+RctZe5fwDiq8Oxy09oRIeiyuqPGn3YKkc4AmHO8jbGTztjPyxJpV+b0SvFyoaygqDmJwDXKyA9/aI+sZ0tlEVJA7VPuoyFTdzhIoIP2tBCy4BKQMbl+gPuVkC6Yc00VCE+q1SxgATs0gZ/J9g3Yny0skJ0inxEVOV4mmqsPcVoslxIRPjQiYoQ95ShoxThbyhCh2dEDIySTQ8WTQsNcwhXTw8SzoyV/baWvmYQuW4zap3tqkEO5Qf7FJ++qty1n7lF4eUi48olxxTrLqQ4HUuqVxv/+9Op3JIJBzqITb9iawz8seaVDrrWMuALkIotypKxlxW4/gkfBecZB32xI1zBusAFbddn9eRtgm8aXe8UCfkDw0iUgF5w8ElyY4oJM1AmASzg5ywXOsePXqUcPTA+8kxUxMjp8WHfxAvnqoME6hEk1SiCfGi8QmiNxNFYxPDxiSFjUoRj0iTvJoRDiiXFz1qXezoQsW4zap3tyoFv6CU26OYvU+x4KBicbFiyTHFilOKNZcTI3/Lffhnk93jp3JAJpzqwquYTLp1wmklQyaRpsHWbgqpHYsVnktNhbZXyWKzxoaaiwZDNdG3ZuO7C1yqIGkSCtwEFDdziOlEC1pQUetx2rMNSD0kCULGvKc5TwhDkgwwUZOQ9+gwJA7jAh7fsT8RZcb4pNosrHvw55/LN+RNS1VMS4z6KDHyw4TwqQmSKYmS9xIl7yZLxidL3kqRjEuVvJ4WPjo9fGSmdESODFCuIA69yinf3a58f4fyw93K6b8qZ+9HKXdEsfS4YuUppevFeJ/riZvUvz6J6KgUEDmkreMB76hMMvPHmlRmJ3UBAme4FcospB6PF7JCn4u1KD+bi4TwFgpckbjPrVdFixoygfoEeYt7xJTAXW9RCybTskuQXmujDDTIvECSZB/pENveEacPkHlIwdM6ZWFdtU47IzPpwwzlh8nRn6REf5wc+Z+k8PeTwicnR0xMjXgnLeLtdOm49Ig3MqVjsmWv5UShVzn5mELFm5uV727DKffZPtW8Q/FfHUv44XSi8GKyy7VUj2vJ3r+pIi6nVJrs+ZYUEkgqYxDiVCdJE3QClC0qvaydtPKDqwW3AlmgNLE4BU8F5/T3ekKmYUFYCDIEi1ipojkMQYH5ZKXFSoLwHZLkkIEkMI/gp4LQHEgOfiMBHgVHjCxgsu7YQsphWCDzREBP8S8L63ZcvfxxevxHGaqP0xTTMxSfpMunpUa+nxo5OS1yUkbkhMyo8VmyN7NkY3OiXgd3lfJR68FV7q2tqvd+iZ+2J2F6ccrcUxkLT6d9eVj545EE99PpYRfzlNc3ZZXu2FF5qMps/xUds55oiJP1zN5r8wKIK6e/5Qh6rxaUdbZCASs/+twu6N4k8QgKLwXwtl5i7YkWD9s7q1qnqmXWoStR+GNANFjgwoQC45YpUhBeC9AH+tQkaA7VCW4HoPtQapeWhIF89sAGJplLOGvWCEPZgQN6iucsrBPt3/NRVsonWYmfZid8npPwaZbyg4yYqRnRgqzo97Jj3s2JeSdX/na+fFxB3NhC5eubE8b9kjRhV/LE7ar3CqPfWysR7s9SXN2be6N4V9XZM/dKygy3dfWmP+332YKnCB5vmkegXQgwWVd3//5PWwqnF+RMz039PD919rq0GWuTPslTTcuNez8/TrBO+V6B8t31qrfXxo5Okw5XhAyWeg8Kch7osaK/45IXVnzTf+nXx6/z/3ynXangJ/1jEGCy7vzN6i8K8mcU5s9anzO3MGf2+ozP1iZ9kBk7QRn2eoSPQ4DLy64r+q349rnvF/Va/EWPhXO7zZ35zOfT/+/TT/716cf/mjF90upVOqPpH4MeHyiPQHsQYLIu7+KFGevXzd684bO8dIFcOsLd8YXvv+61cG6P+bO7zf286+wZz8yc/n+f/RccMz7998zpz8z67JnZM7rO/bzr3JldF87zTE952GT/pwLtiZSfwyPQURCgse7Ro0dhR47M3bljklw2YNn3gFEzp/8bPTB2PTMHZdfcmV3nzwLHF7PRY063BXO6LZjbddH8DcWHOkpkvB88Ah0VARrrDA0Nwp07x0nF3efN+vfMz7rO/bzbvFnd5s/qNn92ty/QA7BrTreFc7stnNv9y3ndvpzXbdG8bovmd/9qfrfFCx1WLLtUwf/znY6aat6vDoMAjXXXdbq3wkK7L5zTdd7M7gvmdEephbGr+6L53RfN7/HVF+D4+oseXy8Ax+KFPb5Z2OObL7t/+2XPH79dEB1hrq/rMKHxjvAIdFAEaKzb/dulviuWdl0wm6DWFz0WL+i5eEFPQK2FPb5d2PO7L3t+t6jn99jxVc8fvu655OteSxb3XLq4t3CJaOP6Dhol7xaPQEdCgMa6+KKdPZcu7vn9ol7g+KrXkq96AVJ93Wvp4l7LFvda9k3vH7/t/RN2fNd7+Xe9V3zfe8UPzwp/eHbVspecV2w7e6ojhcb7wiPQQRGgsc5nbU7vFd9hvHp2+XfPrfj+WeH3gFQrf3h25ZJnf17y3Kqlz61a9tzqZc85/tjH8cc+Tj/1dV7ex3n5856rp0QEV9yr6aBR8m7xCHQkBGisc8zN6OO4rM+qZX1WL+vj+GNfpx/7Ov/U12U5OFxX9HVd8byb8Hn3lc+7rXze/ed+Hqv6ea3q57W6n7fji8Huy3LTHj161JFC433hEeigCNBY57wx/3k3YT/3leDw+Lmf588veK1+wRs9fBxf9HF80c/5RX+X/gEu/QNd+we4vhi0pn+wW/8Q94EhHsrDT+STBB0URt4tHoE2IEBjncvG/P4BrjipAl37B7kNCHEbEOr+UqjHSyL0CPN6KcxroNhroAQcL4nBMVDqNzYm9GRFaRvM8qI8Av9gBGisE+/bMSg64OUIn0FS30FSv0Eyv0Ey/0FR2BGAnmC//QdF+w+Kxs9fUYT8N1PR0GjPL7dsT4bQt7ZDb3Vn6ADD3KMMYb7ZCRGgFQD4fALb5xaeSlw01m28cm5YWsQQZQh1qEKHoMdgZQh2oEN4JziPFw1JCHPbvdH+3qMgtgE4GujYRyDh2e1jHaoU/uBWx0ml/TNg0wL00Zu2vqBZAQvnyqZhVgFaAbSRdTRx0GhrPKweEZ001t00Gd7Nih6eE+2QInFIETukStAjHPwGzXC8H4yiQymSVzOlDimS3SV2/nJL7PsU/k7kaArgTIKONinE6oIxpUjI6CCA/ef9pdUmrWptYMEG7GPHtS0O4R9JhKoFuAg1bQRkc5jGuubm5m03Lo/foBpZqByRG40eUSNyokfkRo3IiSJ+o/150SPXykcWKF4rVLrs33L/ob3/vePfDhtNLQwc6GgDY2g1ZRPWf6AAA89WV/kTArbV/qCps6oW8Ln1NlSLjfwzWdfc3Lyv4sacXXljtiaN3pI4Bj3AyebEMZsTRhPHqI3xb21QztmZE3e+WNdg/3eBQZhBpyC2FpJNSqIYUreFGPfwidBYC6gCVS0MUyADQfKHJLn1dFoP5AP8iorL4CqBMls+w4poyxhbE+nfzQSHCqsk46Hihc6An6QEHB9tAJoATmE5xhDUBFLkD2kDnw4+j05+ASDsOqqckLZyglMnpAzY5FQA+dfWUxbWNTc36xrqDt4uj710zOtE0erjOxyP7fQ+sUd2oTjz+rnt5ddO1lSVGbR36syGxoa22mufPACCiJ6GJY43SQggSDZoQKNYkjpwulJfMoR/9Q0sALkKNJFqoX76KZpHSgxt4gqZCkAbH6I5Bs9BA4XSbtvnIiHlP6qWdAZtQTHQ7OA3VKRwc5EC/6Jmbt/okWMtwiSqnAgP95pyjDYTiFJ2aUNEA9VGydA9R+cLqH80S7iATQajhGH4HEOWSyeYSwsc9+QxXu3YWUdE3FH+0gIGiBCIqRUCgVBIUhIeYuyfWOGIdhB6uJDGALCay4YLixDUhZYH+aXjVAlAIphSagirDaJq0FEraasOyDNIk3UV0SbCkpACmgzo55AjpoBh/AfGFUyjtQl59uKmRsGZlQ/0LtQkJ0Swv9C5DZ0cZlFXOOKg+2y71SlYB2CCoAVNLHxsgBqm5xcCmp4rFBZKC4ESTZ7oBH+BKOwAfmGkVZi1DD4RTxSsnDq3ngW5BcToaYYGcf8oVXgHqpEofnJ6ixOtdGCqUE0Q7BgOdIdwozhE5Bg6lWhxqAdTrU2QCrl8sEaVsINPhUKFLVPnrEahWZyO0auL4Wmbmp2RdWiy0HIoEqJkAJCBNoUsigGtaYU1A+cWX8qBJkZyMZSpAWt19PqAnIP8Qr0iOUKeYLVOKSdSam0E0oVagPyEp7c00XoMM9eib4RHkCiNoFgyBAo1l3ZsIuwjXSWl2Ap4SCUcPj6fY5SShAQok4xO0KS/zmL1YeULpaEtZ52SdUQF46RDM4wnGE49BTTbyyoD5xZZhyaBDXGqaljzRLNBuAO/ZLLOIvJHKSd6aPrQTkIpy3UDnt6mibi1Fn0jPML+wqaoEdALfuCcUKPoGWqDDVhcjtUHKBgqfFIx5As8Sp3b0gk0scrAiSPNteukU7AOsIyeGrRDQfWCNrS+w6CggGbDEcodjhxNnoEmGGMpH9CNe8aSKIYJTD89FoYIzSqkHO+3lsZ0gmHmGGgTvlkN0u4LUEkWajA10pyjNTgkgXOkC7QJVMOGDItvsDF0Ns110EPUCjgnBqFzGzqBbywiLBhSUbTxrHOwDoBAwIcFCGqXuXdFwU3KQLPgdIBxOHls8lgf9RtNBJVFagqRY+wOj2xhTZrXuApKBCgBfkFuNlMbkUyPbfhMU4Q2KEBsBItKU26Re5g0laivtHgocKyiIMBA/3kS1yRsPgewhDtM32hw4WGSBugOgxYxBJ8TzhFf/UufhXoFuggP8DBpGqDQ23HaOViHwkTgh0aJpgqChdkGQkyYUHDJErdRiOxY4hVCLsCorGLytHHIPVwbm5cE8Qid1CzrzNvwGbKO/1doQpmNicSrO+EDBDUBGjpEqGMFB7IOhEkdZD/ZwzKdZoY2nekbzQcwTVhEWoDNMgoAk6Qsw3OY/EKlCI8Ir8EE4pxS076zTsI69Mr0uGJuH1L8rA6IAJNL9nPxsVrqLKwjdkzsByuvuRMi8Fi50EL84EJHu8i2INuKoc7DOtYVbisi5EX+hxF4MqwDVh4j55qbOxHr/oeLhw+tnQg8Gda10znuaTzruLHhR3gE7IMAzzr74Mpr5RHgRoBnHTc2/AiPgH0Q4FlnH1x5rTwC3AjwrOPGhh/hEbAPAjzr7IMrr5VHgBsBnnXc2PAjPAL2QYBnnX1w5bXyCHAjwLOOGxt+hEfAPgjwrLMPrrxWHgFuBHjWcWPDj/AI2AcBnnX2wZXXyiPAjQDPOm5s+BEeAfsgwHjAXQAAAAAQSURBVLPOPrjyWnkEuBH4f/E19QeydcXAAAAAAElFTkSuQmCC;" vertex="1" parent="1">
                    <mxGeometry x="-9538" y="10808" width="3934.58" height="1067" as="geometry"/>
                </mxCell>
                <mxCell id="105" value="&lt;font style=&quot;font-size: 400px;&quot;&gt;E2E Demo Workspace&lt;/font&gt;" style="text;html=1;align=center;verticalAlign=middle;resizable=0;points=[];autosize=1;strokeColor=none;fillColor=none;fontSize=200;" vertex="1" parent="1">
                    <mxGeometry x="-14784" y="13593" width="4057" height="492" as="geometry"/>
                </mxCell>
                <mxCell id="106" value="E2E" style="shape=image;verticalLabelPosition=bottom;labelBackgroundColor=default;verticalAlign=top;aspect=fixed;imageAspect=0;image=https://debruyn.dev/2023/all-microsoft-fabric-icons-for-diagramming-old-version/Workspace.png;" vertex="1" parent="1">
                    <mxGeometry x="-16415" y="13022" width="1586.33" height="1586.33" as="geometry"/>
                </mxCell>
                <mxCell id="108" value="ShortCut&#10;" style="shape=image;verticalLabelPosition=bottom;labelBackgroundColor=default;verticalAlign=top;aspect=fixed;imageAspect=0;image=https://debruyn.dev/2023/all-microsoft-fabric-icons-for-diagramming-old-version/Links.png;" vertex="1" parent="1">
                    <mxGeometry x="-16201" y="19326.59" width="1035.06" height="1067.41" as="geometry"/>
                </mxCell>
                <mxCell id="116" style="edgeStyle=none;html=1;fontSize=11;rounded=0;strokeWidth=12;shape=arrow;" edge="1" parent="1" source="120" target="9">
                    <mxGeometry relative="1" as="geometry">
                        <mxPoint x="-14980.327220706225" y="16473.127218757436" as="sourcePoint"/>
                    </mxGeometry>
                </mxCell>
                <mxCell id="130" value="" style="group" vertex="1" connectable="0" parent="1">
                    <mxGeometry x="-10641" y="19202" width="1095" height="1263" as="geometry"/>
                </mxCell>
                <mxCell id="128" value="" style="shape=image;verticalLabelPosition=bottom;labelBackgroundColor=default;verticalAlign=top;aspect=fixed;imageAspect=0;image=https://debruyn.dev/2023/all-microsoft-fabric-icons-for-diagramming-old-version/Spark_Job.png;" vertex="1" parent="130">
                    <mxGeometry width="1012.2768356643356" height="1043.9107167832167" as="geometry"/>
                </mxCell>
                <mxCell id="129" value="Spark Job" style="text;html=1;align=center;verticalAlign=middle;resizable=0;points=[];autosize=1;strokeColor=none;fillColor=none;fontSize=200;" vertex="1" parent="130">
                    <mxGeometry x="177.11397098920284" y="1077.5244755244755" width="918" height="252" as="geometry"/>
                </mxCell>
                <mxCell id="131" value="" style="group" vertex="1" connectable="0" parent="1">
                    <mxGeometry x="-8404" y="19265" width="1095" height="1263" as="geometry"/>
                </mxCell>
                <mxCell id="132" value="" style="shape=image;verticalLabelPosition=bottom;labelBackgroundColor=default;verticalAlign=top;aspect=fixed;imageAspect=0;image=https://debruyn.dev/2023/all-microsoft-fabric-icons-for-diagramming-old-version/Spark_Job.png;" vertex="1" parent="131">
                    <mxGeometry width="1012.2768356643356" height="1043.9107167832167" as="geometry"/>
                </mxCell>
                <mxCell id="133" value="Spark Job" style="text;html=1;align=center;verticalAlign=middle;resizable=0;points=[];autosize=1;strokeColor=none;fillColor=none;fontSize=200;" vertex="1" parent="131">
                    <mxGeometry x="177.11397098920284" y="1077.5244755244755" width="918" height="252" as="geometry"/>
                </mxCell>
                <mxCell id="135" value="&lt;font style=&quot;font-size: 200px;&quot;&gt;End Point&lt;/font&gt;" style="rounded=1;whiteSpace=wrap;html=1;strokeColor=default;align=center;verticalAlign=middle;fontFamily=Helvetica;fontSize=200;fontColor=default;labelBackgroundColor=default;fillColor=default;" vertex="1" parent="1">
                    <mxGeometry x="-4425" y="16010" width="1079.66" height="287" as="geometry"/>
                </mxCell>
                <mxCell id="145" value="&lt;font style=&quot;font-size: 200px;&quot;&gt;Relational SQL DB&lt;/font&gt;" style="text;html=1;align=center;verticalAlign=middle;resizable=0;points=[];autosize=1;strokeColor=none;fillColor=none;fontSize=72;" vertex="1" parent="1">
                    <mxGeometry x="-20943" y="16835" width="1689" height="252" as="geometry"/>
                </mxCell>
                <mxCell id="148" value="" style="group" vertex="1" connectable="0" parent="1">
                    <mxGeometry x="-9240" y="13014" width="1893.0699999999997" height="2530" as="geometry"/>
                </mxCell>
                <mxCell id="146" value="" style="shape=image;verticalLabelPosition=bottom;labelBackgroundColor=none;verticalAlign=top;aspect=fixed;imageAspect=0;image=https://www.comset.co.uk/wp-content/uploads/2024/01/one-lake-logo2.png;fontSize=100;fillColor=#09555B;strokeColor=#BAC8D3;fontColor=#000000;container=0;imageBackground=default;" vertex="1" parent="148">
                    <mxGeometry width="1893.07" height="1939" as="geometry"/>
                </mxCell>
                <mxCell id="147" value="One Lake" style="text;html=1;align=center;verticalAlign=middle;resizable=0;points=[];autosize=1;strokeColor=none;fillColor=none;fontSize=400;" vertex="1" parent="148">
                    <mxGeometry x="68" y="2038" width="1753" height="492" as="geometry"/>
                </mxCell>
                <mxCell id="149" value="" style="shape=image;verticalLabelPosition=bottom;labelBackgroundColor=default;verticalAlign=top;aspect=fixed;imageAspect=0;image=https://www.databricks.com/wp-content/uploads/2019/09/delta-lake-logo.png;" vertex="1" parent="1">
                    <mxGeometry x="-12040.999999999998" y="19596" width="1132.05" height="924" as="geometry"/>
                </mxCell>
                <mxCell id="150" value="" style="shape=image;verticalLabelPosition=bottom;labelBackgroundColor=default;verticalAlign=top;aspect=fixed;imageAspect=0;image=https://www.jumpingrivers.com/blog/parquet-file-format-big-data-r/parquet-logo.png;" vertex="1" parent="1">
                    <mxGeometry x="-6740" y="19649" width="1346.95" height="898.83" as="geometry"/>
                </mxCell>
                <mxCell id="156" value="" style="shape=image;verticalLabelPosition=bottom;labelBackgroundColor=default;verticalAlign=top;aspect=fixed;imageAspect=0;image=https://solace.com/wp-content/uploads/2021/10/azure-data-lake-storage-logo.png;" vertex="1" parent="1">
                    <mxGeometry x="-20726" y="19216" width="998.48" height="998.48" as="geometry"/>
                </mxCell>
                <mxCell id="157" value="Shortcut" style="text;whiteSpace=wrap;html=1;fontSize=200;" vertex="1" parent="1">
                    <mxGeometry x="-16135" y="20341" width="1414.3" height="370.94" as="geometry"/>
                </mxCell>
                <mxCell id="159" value="&lt;div style=&quot;text-align: center; font-size: 32px;&quot;&gt;&lt;span style=&quot;background-color: initial;&quot;&gt;&lt;font style=&quot;font-size: 32px;&quot;&gt;&lt;b style=&quot;&quot;&gt;Raw Layer&lt;/b&gt;&lt;/font&gt;&lt;/span&gt;&lt;/div&gt;&lt;div style=&quot;font-size: 32px;&quot;&gt;&lt;ul style=&quot;&quot;&gt;&lt;li style=&quot;&quot;&gt;Contains Raw Data&lt;/li&gt;&lt;li style=&quot;font-size: 32px;&quot;&gt;Retrieved from the Source System and saved as-is.&lt;/li&gt;&lt;li style=&quot;font-size: 32px;&quot;&gt;Doesn't undergo any changes&lt;/li&gt;&lt;/ul&gt;&lt;/div&gt;" style="shape=step;perimeter=stepPerimeter;whiteSpace=wrap;html=1;fixedSize=1;fontSize=30;align=left;fillColor=#a0522d;fontColor=#ffffff;strokeColor=#6D1F00;verticalAlign=top;textShadow=0;rounded=0;shadow=1;" vertex="1" parent="1">
                    <mxGeometry x="-5805" y="7898" width="517" height="321" as="geometry"/>
                </mxCell>
                <mxCell id="160" value="&lt;div style=&quot;text-align: center;&quot;&gt;&lt;span style=&quot;background-color: initial;&quot;&gt;&lt;font style=&quot;font-size: 32px;&quot;&gt;&lt;b&gt;Cleansed Layer&lt;/b&gt;&lt;/font&gt;&lt;/span&gt;&lt;/div&gt;&lt;div&gt;&lt;ul&gt;&lt;li style=&quot;&quot;&gt;Contains cleansed raw data&lt;/li&gt;&lt;li&gt;Cleansing rules typically based on data types, null values, unwanted characters etc.&lt;/li&gt;&lt;li&gt;Cleansing rules constitute basic sanity checks&lt;/li&gt;&lt;/ul&gt;&lt;/div&gt;" style="shape=step;perimeter=stepPerimeter;whiteSpace=wrap;html=1;fixedSize=1;fontSize=30;align=left;fillColor=#f5f5f5;strokeColor=#666666;gradientColor=#b3b3b3;verticalAlign=top;textShadow=0;rounded=0;shadow=1;" vertex="1" parent="1">
                    <mxGeometry x="-5280" y="7895" width="509" height="315" as="geometry"/>
                </mxCell>
                <mxCell id="161" value="&lt;div style=&quot;text-align: center;&quot;&gt;&lt;span style=&quot;background-color: initial;&quot;&gt;&lt;font size=&quot;1&quot; style=&quot;&quot;&gt;&lt;b style=&quot;font-size: 30px;&quot;&gt;Curated Layer&lt;/b&gt;&lt;/font&gt;&lt;/span&gt;&lt;/div&gt;&lt;div&gt;&lt;ul&gt;&lt;li style=&quot;&quot;&gt;Contains data integrated from various source sources&lt;/li&gt;&lt;li style=&quot;&quot;&gt;Organized systematically by an integrated function or a subject area&lt;/li&gt;&lt;li style=&quot;&quot;&gt;Data Standardized across sources&lt;/li&gt;&lt;/ul&gt;&lt;/div&gt;" style="shape=step;perimeter=stepPerimeter;whiteSpace=wrap;html=1;fixedSize=1;fontSize=30;align=left;fillColor=#fff2cc;strokeColor=#d6b656;gradientColor=#ffd966;verticalAlign=top;textShadow=0;rounded=0;shadow=1;" vertex="1" parent="1">
                    <mxGeometry x="-4764" y="7889" width="509" height="315" as="geometry"/>
                </mxCell>
                <mxCell id="162" value="" style="group" vertex="1" connectable="0" parent="1">
                    <mxGeometry x="-10779" y="16307" width="1208.54" height="1511" as="geometry"/>
                </mxCell>
                <mxCell id="163" value="Data" style="shape=image;verticalLabelPosition=bottom;labelBackgroundColor=default;verticalAlign=top;aspect=fixed;imageAspect=0;image=https://debruyn.dev/2023/all-microsoft-fabric-icons-for-diagramming-old-version/Dataflow.png;" vertex="1" parent="162">
                    <mxGeometry x="119.6466564665646" width="1088.8933435334345" height="1122.9149479923362" as="geometry"/>
                </mxCell>
                <mxCell id="164" value="Data Flow Gen 2" style="text;html=1;align=center;verticalAlign=middle;resizable=0;points=[];autosize=1;strokeColor=none;fillColor=none;fontSize=200;" vertex="1" parent="162">
                    <mxGeometry y="1288.4564582115722" width="1519" height="252" as="geometry"/>
                </mxCell>
            </root>
        </mxGraphModel>
    </diagram>
</mxfile>